<?xml version="1.0" encoding="UTF-8"?>
<svg width="753px" height="629px" viewBox="0 0 753 629" version="1.1" xmlns="http://www.w3.org/2000/svg" xmlns:xlink="http://www.w3.org/1999/xlink">
    <!-- Generator: Sketch 55.2 (78181) - https://sketchapp.com -->
    <title>Group 3</title>
    <desc>Created with Sketch.</desc>
    <g id="Page-1" stroke="none" stroke-width="1" fill="none" fill-rule="evenodd">
        <g id="Desktop" transform="translate(0.000000, -2913.000000)">
            <g id="anti-aging" transform="translate(-43.000000, 2753.000000)">
                <g id="Group-3" transform="translate(0.000000, 141.000000)">
                    <rect id="Rectangle-Copy-7" fill="#D6CDE9" x="37" y="19" width="759" height="575"></rect>
                    <g id="Group-69-Copy-2" stroke="#3F2811" stroke-width="2.25">
                        <path d="M246,238.223918 C246,238.223918 261.236753,213.913971 287.9019,210.584526 C314.565942,207.254017 344,219.242572 344,219.242572 C344,219.242572 328.416027,234.227733 304.869223,238.223918 C281.321313,242.220103 246,238.223918 246,238.223918 Z" id="Stroke-1"></path>
                        <path d="M291.945688,210 C291.945688,210 286.900922,219.098204 290.015166,226.676666 C293.12941,234.255128 297.60077,238.747985 301,240" id="Stroke-3"></path>
                        <path d="M327.397652,213 C327.397652,213 329.310673,219.399665 326.318262,223.999424 C323.324769,228.599184 317,234 317,234" id="Stroke-5"></path>
                        <path d="M244,225 C244,225 258.899977,195 297.099568,195 C335.299158,195 359,209.092771 359,209.092771" id="Stroke-7"></path>
                        <path d="M343,217 L354,220" id="Stroke-9"></path>
                        <path d="M222,167 C222,167 222,150.343783 226,141" id="Stroke-11"></path>
                        <path d="M229,167 C229,167 229.760014,149.530821 240,141" id="Stroke-13"></path>
                        <path d="M143.102803,207 C143.102803,207 157.833791,234.356066 151.352156,254.274435 C144.870521,274.192803 133.756392,307.233874 130.979467,325.204195 C128.20147,343.174517 115.702093,360.720109 112.925167,377.792682 C110.147171,394.864158 105.981783,412.411946 136.071568,420" id="Stroke-15"></path>
                        <path d="M121.708526,364 C121.708526,364 111.114342,381.105932 121.708526,388.927316 C132.301535,396.746423 133.309833,393.324781 141.380921,392.8363 C149.450833,392.347819 155,394 155,394" id="Stroke-17"></path>
                        <path d="M225.146487,365 C225.146487,365 241.280128,383.806804 235.902606,396.940197 C230.524009,410.074664 224.249696,420.223635 212,425" id="Stroke-19"></path>
                        <path d="M204.048361,412.757445 C204.048361,412.757445 220.564878,412.337422 208.727876,408.371836 C196.891975,404.407086 175.145284,405.867564 168.814888,409.415631 C162.483392,412.963699 171.842421,412.75494 171.842421,412.75494 C171.842421,412.75494 181.75211,414.216253 170.19154,416.303008 C158.629868,418.390597 145.417316,419.016874 140.462471,415.468807 C135.507626,411.920739 125.322606,407.328876 123.670624,409.206872 C122.019744,411.085703 123.670624,412.963699 125.873267,414.216253" id="Stroke-21"></path>
                        <path d="M112,248.8334 C112,248.8334 111.392981,229.652609 92.8570191,224.126937 C74.3233013,218.600065 49.1033973,215.349246 33,236.479568 C43.0264743,246.557347 46.3690064,246.557347 52.1418589,252.084219 C57.9158334,257.611091 78.5769231,257.935213 112,248.8334 Z" id="Stroke-23"></path>
                        <path d="M69.0771769,226 C69.0771769,226 63.6316924,236.428627 67.2287273,243.552214 C70.8248019,250.6758 76.0907227,254.594724 82,256" id="Stroke-25"></path>
                        <path d="M111,240 C111,240 97.0482242,216.035911 61.6484285,215.034644 C26.2486328,214.033376 25,235.068545 25,235.068545" id="Stroke-27"></path>
                        <path d="M234,164 C234,164 238.048565,145.841449 264,138" id="Stroke-29"></path>
                        <path d="M240,164 C240,164 246.923431,143.777206 270,138" id="Stroke-31"></path>
                        <path d="M253,156 C253,156 266.810635,140.711993 289,140" id="Stroke-33"></path>
                        <path d="M261,154 C261,154 279.340104,142 301,142" id="Stroke-35"></path>
                        <path d="M266,130 C266,130 289.193663,123.25 315,130" id="Stroke-37"></path>
                        <path d="M277,135.678222 C277,135.678222 299.68462,134.876222 326,135.678222" id="Stroke-39"></path>
                        <path d="M293,138.589111 C293,138.589111 316.588759,138.188111 341,138.589111" id="Stroke-41"></path>
                        <path d="M310,142 C310,142 333.5168,135.257409 372,139.280376" id="Stroke-43"></path>
                        <path d="M315,124 C315,124 341.727369,125.714489 357,128" id="Stroke-45"></path>
                        <path d="M332,134.013149 C332,134.013149 372.201717,133.558229 384,138" id="Stroke-47"></path>
                        <path d="M102,186 C102,186 95.0757621,157.870305 66,150" id="Stroke-49"></path>
                        <path d="M91,179 C91,179 85.9371192,171.205151 51,163" id="Stroke-51"></path>
                        <path d="M77,179 C77,179 53.4487899,164.483388 19,168.802907" id="Stroke-53"></path>
                        <path d="M79,162 C79,162 58.0630376,147.734597 30,151.69454" id="Stroke-55"></path>
                        <path d="M269,497.385122 C269,497.385122 260.744694,495.261857 254.845669,495.261857 C248.946643,495.261857 239.292885,493.315438 235.439374,493.138591 C231.584752,492.962842 203.182859,485.00142 199.071854,486.239351 C194.95974,487.477282 182.804307,488.184671 180.480213,487.655227 C178.156119,487.123587 176.369208,485.178267 171.72213,486.416198 C167.072832,487.655227 163.676592,486.416198 159.385786,486.061405 C155.096091,485.707711 153.646584,490.633072 151.685422,496 C149.723149,501.369129 141.352416,500.294864 137.736419,500.294864 C134.121531,500.294864 130.143713,498.863609 127.281326,485.980121 C124.417829,473.096633 144.245879,457.350636 149.036132,458.020678 C153.826385,458.691819 160.517866,465.223085 165.671051,465.581174 C170.825345,465.939262 172.813145,455.918283 183.660026,458.423802 C194.509127,460.929322 218.736752,471.30729 232.116385,477.748485 C245.496019,484.190778 269,497.385122 269,497.385122 C269,497.385122 250.609247,510.898011 235.439374,524.517447 C220.2695,538.137982 205.769995,544.460546 189.551282,543.973942 C173.33146,543.488435 153.425717,541.785869 145.070522,525.734508 C138.652072,513.402432 134.407881,506.23847 132.785233,503.57917 C132.403433,502.950868 132.690893,502.140227 133.38346,501.877702 L135.693125,501.000056" id="Stroke-63"></path>
                        <path d="M242,496 C242,496 220.252993,496.526639 214.829495,497.964586 C209.404914,499.402534 202.604174,499.094257 200.415517,499.094257 C198.22686,499.094257 190.173294,500.326687 187.214334,499.916328 C184.255373,499.505293 172.092802,497.419018 164.695942,497.999741 C157.299082,498.580463 152,499.463378 152,499.463378" id="Stroke-65"></path>
                        <path d="M39.5347084,0 C39.5347084,0 -14.6869615,47.3051942 3.86862777,201.628642 C3.86862777,219.28688 4.8068878,253.587476 3.86862777,280.729475 C2.9314768,307.871474 3.76881288,348.885045 24.2142308,388.138198 C44.6585398,427.390247 55.12025,466.170204 59.3989819,474.20901 C63.6788228,482.248918 91.7079548,535.910813 110.648386,560.011788 C129.588817,584.112762 147.274908,613.187252 152.447537,619.295773 C157.620167,625.405398 177.900336,657.494439 255.897914,641.651771 C333.894383,625.809103 418.484181,562.985528 466.270008,518.190806 C514.056945,473.396084 519,393.418352 519,393.418352" id="Stroke-67"></path>
                    </g>
                </g>
            </g>
        </g>
    </g>
</svg>