<?xml version="1.0" encoding="UTF-8"?>
<svg width="1063px" height="743px" viewBox="0 0 1063 743" version="1.1" xmlns="http://www.w3.org/2000/svg" xmlns:xlink="http://www.w3.org/1999/xlink">
    <!-- Generator: Sketch 55.2 (78181) - https://sketchapp.com -->
    <title>Group 3</title>
    <desc>Created with Sketch.</desc>
    <g id="Page-1" stroke="none" stroke-width="1" fill="none" fill-rule="evenodd">
        <g id="Desktop-HD" transform="translate(-2.000000, -3232.000000)">
            <g id="anti-aging" transform="translate(2.000000, 3070.000000)">
                <g id="Group-3" transform="translate(0.000000, 164.000000)">
                    <rect id="Rectangle-Copy-11" fill="#D6CDE9" x="0" y="91" width="1063" height="650"></rect>
                    <g id="Group-69-Copy-3" transform="translate(58.000000, 0.000000)" stroke="#3F2811" stroke-width="3.15">
                        <path d="M271,262.04631 C271,262.04631 287.791524,235.305368 317.177604,231.642978 C346.562466,227.979419 379,241.166829 379,241.166829 C379,241.166829 361.825826,257.650506 335.876286,262.04631 C309.925528,266.442113 271,262.04631 271,262.04631 Z" id="Stroke-1"></path>
                        <path d="M321.191162,231 C321.191162,231 315.725999,241.008024 319.099763,249.344332 C322.473527,257.68064 327.317501,262.622783 331,264" id="Stroke-3"></path>
                        <path d="M361.342893,235 C361.342893,235 363.429825,242.009157 360.165377,247.046989 C356.899748,252.08482 350,258 350,258" id="Stroke-5"></path>
                        <path d="M269,248 C269,248 285.454757,215 327.640392,215 C369.826027,215 396,230.502049 396,230.502049" id="Stroke-7"></path>
                        <path d="M378,239 L390,242" id="Stroke-9"></path>
                        <path d="M244,183 C244,183 244,165.062536 249,155" id="Stroke-11"></path>
                        <path d="M252,183 C252,183 252.829107,164.187038 264,155" id="Stroke-13"></path>
                        <path d="M157.160212,227 C157.160212,227 173.294152,257.181576 166.195219,279.15724 C159.096285,301.132905 146.923668,337.586668 143.882273,357.413079 C140.839706,377.23949 127.149911,396.597303 124.108517,415.433241 C121.065949,434.267968 116.503857,453.628203 149.459336,462" id="Stroke-15"></path>
                        <path d="M134.204161,401 C134.204161,401 122.494799,419.816526 134.204161,428.420048 C145.912223,437.021065 147.026658,433.257259 155.947334,432.71993 C164.866711,432.182601 171,434 171,434" id="Stroke-17"></path>
                        <path d="M248.198206,402 C248.198206,402 265.622538,422.687484 259.814815,437.134217 C254.00593,451.582131 247.229672,462.745998 234,468" id="Stroke-19"></path>
                        <path d="M225.153198,454.320565 C225.153198,454.320565 243.321366,453.86554 230.300663,449.569489 C217.281173,445.274343 193.359812,446.856527 186.396377,450.700267 C179.431731,454.544007 189.726663,454.317852 189.726663,454.317852 C189.726663,454.317852 200.627321,455.900941 187.910694,458.161592 C175.192855,460.423147 160.659048,461.101614 155.208718,457.257874 C149.758389,453.414134 138.554867,448.439616 136.737687,450.474112 C134.921718,452.509512 136.737687,454.544007 139.160594,455.900941" id="Stroke-21"></path>
                        <path d="M123,274.037111 C123,274.037111 122.331511,252.725121 101.918489,246.585486 C81.5079394,240.444517 53.7341211,236.832496 36,260.310632 C47.0418134,271.508163 50.7228298,271.508163 57.080275,277.649132 C63.4389558,283.790101 86.1923077,284.150236 123,274.037111 Z" id="Stroke-23"></path>
                        <path d="M76.461824,249 C76.461824,249 70.3356539,260.471489 74.3823182,268.307435 C78.4279022,276.14338 84.3520631,280.454196 91,282" id="Stroke-25"></path>
                        <path d="M122,264 C122,264 106.588155,238.118784 67.4837292,237.037415 C28.3793037,235.956046 27,258.674029 27,258.674029" id="Stroke-27"></path>
                        <path d="M258,181 C258,181 262.453421,161.444638 291,153" id="Stroke-29"></path>
                        <path d="M264,181 C264,181 271.615774,159.221607 297,153" id="Stroke-31"></path>
                        <path d="M278,172 C278,172 293.34515,154.800992 318,154" id="Stroke-33"></path>
                        <path d="M288,169 C288,169 308.632618,156 333,156" id="Stroke-35"></path>
                        <path d="M294,143 C294,143 319.560363,136.25 348,143" id="Stroke-37"></path>
                        <path d="M305,149.678222 C305,149.678222 329.999377,148.876222 359,149.678222" id="Stroke-39"></path>
                        <path d="M323,152.589111 C323,152.589111 349.045921,152.188111 376,152.589111" id="Stroke-41"></path>
                        <path d="M342,156 C342,156 367.79262,147.571761 410,152.60047" id="Stroke-43"></path>
                        <path d="M348,136 C348,136 377.272833,138.143111 394,141" id="Stroke-45"></path>
                        <path d="M365,148.016436 C365,148.016436 409.840377,147.447786 423,153" id="Stroke-47"></path>
                        <path d="M113,205 C113,205 105.306402,173.744783 73,165" id="Stroke-49"></path>
                        <path d="M101,197 C101,197 95.3042591,188.230795 56,179" id="Stroke-51"></path>
                        <path d="M84,197 C84,197 58.4185132,181.163696 21,185.875899" id="Stroke-53"></path>
                        <path d="M87,178 C87,178 63.9266129,162.437742 33,166.75768" id="Stroke-55"></path>
                        <path d="M47,176.061519 C47,176.061519 22.4561876,174.427667 2,188" id="Stroke-57"></path>
                        <path d="M45,165.146702 C45,165.146702 21.3466274,162.677437 0,178" id="Stroke-59"></path>
                        <path d="M47,190.221637 C47,190.221637 14.7603646,185.719836 1,194" id="Stroke-61"></path>
                        <path d="M296,547.506821 C296,547.506821 286.930791,545.161353 280.450171,545.161353 C273.969552,545.161353 263.364015,543.01124 259.130579,542.815885 C254.895924,542.621744 223.693845,533.82715 219.17753,535.194632 C214.659996,536.562113 201.30614,537.343532 198.75291,536.758681 C196.19968,536.171404 194.236595,534.022504 189.131354,535.389986 C184.023675,536.758681 180.292594,535.389986 175.578751,534.998064 C170.866128,534.607355 169.273712,540.048161 167.119196,545.976746 C164.96346,551.907758 155.767443,550.721071 151.794939,550.721071 C147.823654,550.721071 143.453656,549.140033 140.309062,534.908273 C137.163249,520.676513 158.946177,503.282679 164.208709,504.022842 C169.47124,504.764219 176.822445,511.97899 182.48369,512.374552 C188.146154,512.770115 190.329933,501.700429 202.246226,504.468154 C214.164957,507.235879 240.781221,518.699914 255.479973,525.815187 C270.178725,532.931674 296,547.506821 296,547.506821 C296,547.506821 275.796074,562.433849 259.130579,577.478575 C242.465084,592.524515 226.536051,599.508743 208.71831,598.971214 C190.89935,598.4349 169.03107,596.554157 159.852123,578.823003 C152.800867,565.200361 148.138236,557.286682 146.355608,554.349083 C145.936166,553.655029 146.251967,552.759553 147.012815,552.469554 L149.550194,551.500062" id="Stroke-63"></path>
                        <path d="M267,545 C267,545 243.078293,545.658299 237.112444,547.455733 C231.145406,549.253167 223.664591,548.867822 221.257068,548.867822 C218.849546,548.867822 209.990624,550.408359 206.735767,549.89541 C203.480911,549.381616 190.102082,546.773773 181.965536,547.499676 C173.82899,548.225579 168,549.329222 168,549.329222" id="Stroke-65"></path>
                        <path d="M43.5719715,0 C43.5719715,0 -16.1867861,52.0650048 4.26368995,221.916354 C4.26368995,241.35135 5.29776459,279.103243 4.26368995,308.976249 C3.23083763,338.849254 4.15368201,383.989578 26.686975,427.192351 C49.2190457,470.39391 60.7491002,513.075875 65.4647738,521.923538 C70.1816698,530.772416 101.073122,589.833728 121.947739,616.359723 C142.822357,642.885718 162.314542,674.885659 168.015398,681.608815 C173.716254,688.333186 196.067422,723.651 282.030071,706.214256 C367.991498,688.777511 461.21956,619.632679 513.88525,570.330748 C566.552162,521.028817 572,433.003789 572,433.003789" id="Stroke-67"></path>
                    </g>
                </g>
            </g>
        </g>
    </g>
</svg>