<?xml version="1.0" encoding="UTF-8"?>
<svg width="390px" height="474px" viewBox="0 0 390 474" version="1.1" xmlns="http://www.w3.org/2000/svg" xmlns:xlink="http://www.w3.org/1999/xlink">
    <!-- Generator: Sketch 55.2 (78181) - https://sketchapp.com -->
    <title>Group 11</title>
    <desc>Created with Sketch.</desc>
    <defs>
        <path d="M24.2235786,0 C24.2235786,0 -8.9989475,28.9982305 2.37037309,123.598982 C2.37037309,134.423537 2.94526073,155.449908 2.37037309,172.088037 C1.79616498,188.726167 2.30921483,213.867613 14.8364651,237.929917 C27.3630359,261.991545 33.7731011,285.763778 36.3947519,290.691591 C39.0170822,295.62008 56.1910012,328.514988 67.7961209,343.28896 C79.4012405,358.062932 90.2378047,375.885684 93.4071617,379.630226 C96.5765186,383.375445 109.002518,403.046127 156.792942,393.334522 C204.582686,383.622918 256.412273,345.111872 285.69145,317.652569 C314.971307,290.193265 316.047314,280.620941 315.943389,265.13304" id="path-1"></path>
    </defs>
    <g id="Page-1" stroke="none" stroke-width="1" fill="none" fill-rule="evenodd">
        <g id="Group-11">
            <rect id="Rectangle-Copy-4" fill="#D6CDE9" x="0" y="0" width="390" height="455"></rect>
            <g id="Group-69-Copy" transform="translate(18.000000, 77.000000)">
                <path d="M150,145.934351 C150,145.934351 159.328624,131.348383 175.654225,129.350716 C191.979148,127.35241 210,134.545543 210,134.545543 C210,134.545543 200.458792,143.53664 186.042381,145.934351 C171.625293,148.332062 150,145.934351 150,145.934351 Z" id="Stroke-1" stroke="#3F2811" stroke-width="1.5"></path>
                <path d="M177.709266,129 C177.709266,129 173.925692,134.458922 176.261375,139.005999 C178.597057,143.553077 181.950578,146.248791 184.5,147" id="Stroke-3" stroke="#3F2811" stroke-width="1.5"></path>
                <path d="M202.089308,130.5 C202.089308,130.5 203.393641,134.61407 201.353361,137.571059 C199.312343,140.528047 195,144 195,144" id="Stroke-5" stroke="#3F2811" stroke-width="1.5"></path>
                <path d="M150,138 C150,138 159.134334,120 182.552344,120 C205.970353,120 220.5,128.455663 220.5,128.455663" id="Stroke-7" stroke="#3F2811" stroke-width="1.5"></path>
                <path d="M210,133.5 L217.5,135" id="Stroke-9" stroke="#3F2811" stroke-width="1.5"></path>
                <path d="M136.5,102 C136.5,102 136.5,91.4297084 139.5,85.5" id="Stroke-11" stroke="#3F2811" stroke-width="1.5"></path>
                <path d="M139.5,102 C139.5,102 140.018192,90.9137903 147,85.5" id="Stroke-13" stroke="#3F2811" stroke-width="1.5"></path>
                <path d="M86.9909873,127.5 C86.9909873,127.5 95.9348018,144.260407 91.9995234,156.463914 C88.064245,168.667422 81.3163809,188.910895 79.6303906,199.92088 C77.9437498,210.930866 70.3548419,221.68063 68.6688515,232.140587 C66.9822108,242.599872 64.4532252,253.350981 82.7220233,258" id="Stroke-15" stroke="#3F2811" stroke-width="1.5"></path>
                <path d="M74.7879431,223.5 C74.7879431,223.5 68.5150711,233.763559 74.7879431,238.45639 C81.0601194,243.147854 81.6571381,241.094868 86.4360716,240.80178 C91.2143093,240.508692 94.5,241.5 94.5,241.5" id="Stroke-17" stroke="#3F2811" stroke-width="1.5"></path>
                <path d="M138.387892,223.5 C138.387892,223.5 148.068077,235.254252 144.841564,243.462623 C141.614405,251.671665 137.849818,258.014772 130.5,261" id="Stroke-19" stroke="#3F2811" stroke-width="1.5"></path>
                <path d="M124.979823,252.568084 C124.979823,252.568084 135.165008,252.253066 127.865523,249.278877 C120.566718,246.305314 107.156258,247.400673 103.252514,250.061723 C99.3480916,252.722774 105.119493,252.566205 105.119493,252.566205 C105.119493,252.566205 111.230468,253.66219 104.10145,255.227256 C96.9717521,256.792948 88.8240115,257.262656 85.7685239,254.601605 C82.7130362,251.940554 76.4322739,248.496657 75.4135516,249.905154 C74.3955085,251.314277 75.4135516,252.722774 76.771848,253.66219" id="Stroke-21" stroke="#3F2811" stroke-width="1.5"></path>
                <path d="M67.5,151.819483 C67.5,151.819483 67.1311783,140.630689 55.8688217,137.40738 C44.6078287,134.183371 29.2843427,132.28706 19.5,144.613082 C25.592035,150.491786 27.6229406,150.491786 31.1304965,153.715794 C34.6387342,156.939803 47.1923077,157.128874 67.5,151.819483 Z" id="Stroke-23" stroke="#3F2811" stroke-width="1.5"></path>
                <path d="M42.5193973,138 C42.5193973,138 38.9457981,144.257176 41.3063523,148.531328 C43.6662763,152.80548 47.1220368,155.156834 51,156" id="Stroke-25" stroke="#3F2811" stroke-width="1.5"></path>
                <path d="M67.5,147 C67.5,147 58.9829276,132.621546 37.3725872,132.020786 C15.7622468,131.420026 15,144.041127 15,144.041127" id="Stroke-27" stroke="#3F2811" stroke-width="1.5"></path>
                <path d="M144,100.5 C144,100.5 146.429139,88.9763044 162,84" id="Stroke-29" stroke="#3F2811" stroke-width="1.5"></path>
                <path d="M148.5,100.5 C148.5,100.5 152.654059,87.666304 166.5,84" id="Stroke-31" stroke="#3F2811" stroke-width="1.5"></path>
                <path d="M154.5,96 C154.5,96 162.556204,85.9672451 175.5,85.5" id="Stroke-33" stroke="#3F2811" stroke-width="1.5"></path>
                <path d="M160.5,96 C160.5,96 171.504063,87 184.5,87" id="Stroke-35" stroke="#3F2811" stroke-width="1.5"></path>
                <path d="M163.5,79.5 C163.5,79.5 177.700202,76.125 193.5,79.5" id="Stroke-37" stroke="#3F2811" stroke-width="1.5"></path>
                <path d="M171,82.6202317 C171,82.6202317 184.888543,82.0791891 201,82.6202317" id="Stroke-39" stroke="#3F2811" stroke-width="1.5"></path>
                <path d="M180,84.0601158 C180,84.0601158 194.005825,83.7895945 208.5,84.0601158" id="Stroke-41" stroke="#3F2811" stroke-width="1.5"></path>
                <path d="M189,87 C189,87 203.792826,81.9430567 228,84.9602818" id="Stroke-43" stroke="#3F2811" stroke-width="1.5"></path>
                <path d="M193.5,76.5 C193.5,76.5 209.727331,77.7858669 219,79.5" id="Stroke-45" stroke="#3F2811" stroke-width="1.5"></path>
                <path d="M204,81.0098618 C204,81.0098618 228.352963,80.6686719 235.5,84" id="Stroke-47" stroke="#3F2811" stroke-width="1.5"></path>
                <path d="M63,114 C63,114 58.9608613,97.591011 42,93" id="Stroke-49" stroke="#3F2811" stroke-width="1.5"></path>
                <path d="M55.5,109.5 C55.5,109.5 52.4622715,104.384631 31.5,99" id="Stroke-51" stroke="#3F2811" stroke-width="1.5"></path>
                <path d="M46.5,109.5 C46.5,109.5 31.8820075,99.6023099 10.5,102.547437" id="Stroke-53" stroke="#3F2811" stroke-width="1.5"></path>
                <path d="M48,100.5 C48,100.5 35.1814516,90.7735887 18,93.4735499" id="Stroke-55" stroke="#3F2811" stroke-width="1.5"></path>
                <path d="M25.5,96.0384497 C25.5,96.0384497 12.4099667,95.0172917 1.5,103.5" id="Stroke-57" stroke="#3F2811" stroke-width="1.5"></path>
                <path d="M24,91.6015632 C24,91.6015632 11.384868,89.8920721 0,100.5" id="Stroke-59" stroke="#3F2811" stroke-width="1.5"></path>
                <path d="M27,105.732982 C27,105.732982 9.12802818,103.031902 1.5,108" id="Stroke-61" stroke="#3F2811" stroke-width="1.5"></path>
                <path d="M165,304.543243 C165,304.543243 159.942172,303.247064 156.32798,303.247064 C152.713789,303.247064 146.799162,302.058843 144.438208,301.950884 C142.076573,301.843595 124.675414,296.983425 122.156699,297.739139 C119.637305,298.494852 112.189963,298.926688 110.766046,298.603482 C109.342129,298.278934 108.247332,297.091384 105.400178,297.847098 C102.551665,298.603482 100.47087,297.847098 97.8419958,297.630509 C95.2138019,297.414591 94.325724,300.421352 93.1241668,303.697675 C91.9219296,306.97534 86.7933815,306.319539 84.5779466,306.319539 C82.3631918,306.319539 79.9260774,305.445808 78.1723615,297.580888 C76.4179656,289.715968 88.5661374,280.103586 91.5010106,280.512623 C94.4358837,280.922332 98.5355942,284.909442 101.692827,285.128042 C104.85074,285.346642 106.068617,279.229184 112.714241,280.758717 C119.361226,282.288249 134.204911,288.623637 142.402292,292.555761 C150.599673,296.488557 165,304.543243 165,304.543243 C165,304.543243 153.732426,312.79239 144.438208,321.106581 C135.143989,329.421442 126.26049,333.281147 116.323673,332.984092 C106.386176,332.687708 94.1904043,331.64835 89.0713762,321.849554 C85.1389453,314.321252 82.5386314,309.947903 81.5444737,308.324493 C81.3105542,307.940937 81.4866738,307.446069 81.9109928,307.285806 L83.3260695,306.750034" id="Stroke-63" stroke="#3F2811" stroke-width="1.5"></path>
                <path d="M148.5,303 C148.5,303 135.089346,303.394979 131.744855,304.47344 C128.399697,305.5519 124.205907,305.320693 122.856235,305.320693 C121.506563,305.320693 116.540198,306.245015 114.715506,305.937246 C112.890814,305.62897 105.390561,304.064264 100.829164,304.499806 C96.267767,304.935348 93,305.597533 93,305.597533" id="Stroke-65" stroke="#3F2811" stroke-width="1.5"></path>
                <mask id="mask-2" fill="white">
                    <use xlink:href="#path-1"></use>
                </mask>
                <use id="Stroke-67" stroke="#3F2811" stroke-width="1.5" xlink:href="#path-1"></use>
            </g>
        </g>
    </g>
</svg>