<?xml version="1.0" encoding="UTF-8"?>
<svg width="558px" height="555px" viewBox="0 0 558 555" version="1.1" xmlns="http://www.w3.org/2000/svg" xmlns:xlink="http://www.w3.org/1999/xlink">
    <!-- Generator: Sketch 55.2 (78181) - https://sketchapp.com -->
    <title>Group 4</title>
    <desc>Created with Sketch.</desc>
    <g id="Page-1" stroke="none" stroke-width="1" fill="none" fill-rule="evenodd">
        <g id="Tablet" transform="translate(0.000000, -2255.000000)">
            <g id="anti-aging" transform="translate(-27.000000, 2171.000000)">
                <g id="Group-4" transform="translate(0.000000, 84.000000)">
                    <rect id="Rectangle-Copy-4" fill="#D6CDE9" x="27" y="0" width="558" height="530"></rect>
                    <g id="Group-69-Copy" transform="translate(0.000000, 90.000000)" stroke="#3F2811" stroke-width="1.5">
                        <path d="M177,171.69754 C177,171.69754 187.883395,153.870245 206.929929,151.428652 C225.975673,148.986279 247,157.777886 247,157.777886 C247,157.777886 235.868591,168.767004 219.049445,171.69754 C202.229509,174.628075 177,171.69754 177,171.69754 Z" id="Stroke-1"></path>
                        <path d="M209.209266,151 C209.209266,151 205.425692,157.672016 207.761375,163.229555 C210.097057,168.787094 213.450578,172.081855 216,173" id="Stroke-3"></path>
                        <path d="M235.561929,153 C235.561929,153 236.953217,157.875935 234.776918,161.380514 C232.599832,164.885092 228,169 228,169" id="Stroke-5"></path>
                        <path d="M175,162 C175,162 185.753897,140 213.324036,140 C240.894175,140 258,150.334699 258,150.334699" id="Stroke-7"></path>
                        <path d="M247,156 L255,158" id="Stroke-9"></path>
                        <path d="M160,120 C160,120 160,107.828149 163,101" id="Stroke-11"></path>
                        <path d="M164,120 C164,120 164.552738,107.234062 172,101" id="Stroke-13"></path>
                        <path d="M102.930573,149 C102.930573,149 113.452708,168.650132 108.822969,182.957692 C104.193229,197.265253 96.2545658,220.99898 94.2710478,233.907239 C92.2867645,246.815498 83.3586375,259.41867 81.3751195,271.682068 C79.3908362,283.944677 76.4155591,296.549426 97.9082628,302" id="Stroke-15"></path>
                        <path d="M87.3455318,261 C87.3455318,261 79.8180853,273.54435 87.3455318,279.280032 C94.8721432,285.014043 95.5885658,282.504839 101.323286,282.14662 C107.057171,281.788401 111,283 111,283" id="Stroke-17"></path>
                        <path d="M162.465471,262 C162.465471,262 174.081692,275.478209 170.209876,284.890474 C166.337286,294.303509 161.819781,301.576938 153,305" id="Stroke-19"></path>
                        <path d="M146.534928,297.068084 C146.534928,297.068084 158.463523,296.753066 149.914577,293.778877 C141.366427,290.805314 125.660483,291.900673 121.08853,294.561723 C116.515783,297.222774 123.275082,297.066205 123.275082,297.066205 C123.275082,297.066205 130.43208,298.16219 122.082779,299.727256 C113.732683,301.292948 104.190284,301.762656 100.611785,299.101605 C97.0332857,296.440554 89.6774379,292.996657 88.4843398,294.405154 C87.292037,295.814277 88.4843398,297.222774 90.0751373,298.16219" id="Stroke-21"></path>
                        <path d="M80,178.023195 C80,178.023195 79.5620242,164.703201 66.1879758,160.865929 C52.8155465,157.027823 34.6189069,154.77031 23,169.444145 C30.2342916,176.442602 32.6459919,176.442602 36.8112146,180.280708 C40.9772469,184.118813 55.8846154,184.343898 80,178.023195 Z" id="Stroke-23"></path>
                        <path d="M49.3078827,162 C49.3078827,162 45.2237693,169.64766 47.9215455,174.871623 C50.6186014,180.095587 54.568042,182.969464 59,184" id="Stroke-25"></path>
                        <path d="M80,172 C80,172 69.9417431,154.745856 44.4209601,154.024943 C18.9001771,153.304031 18,168.449353 18,168.449353" id="Stroke-27"></path>
                        <path d="M168,118 C168,118 170.968947,104.73029 190,99" id="Stroke-29"></path>
                        <path d="M172,118 C172,118 177.077183,103.221805 194,99" id="Stroke-31"></path>
                        <path d="M182,113 C182,113 191.590719,101.533994 207,101" id="Stroke-33"></path>
                        <path d="M188,111 C188,111 200.838073,102 216,102" id="Stroke-35"></path>
                        <path d="M191,93 C191,93 207.566902,88.5 226,93" id="Stroke-37"></path>
                        <path d="M199,97.6782222 C199,97.6782222 215.2033,96.8762222 234,97.6782222" id="Stroke-39"></path>
                        <path d="M211,99.5891111 C211,99.5891111 227.708704,99.1881111 245,99.5891111" id="Stroke-41"></path>
                        <path d="M222,102 C222,102 239.068645,96.9430567 267,99.9602818" id="Stroke-43"></path>
                        <path d="M226,89 C226,89 245.090978,90.2858669 256,92" id="Stroke-45"></path>
                        <path d="M239,96.0098618 C239,96.0098618 267.605068,95.6686719 276,99" id="Stroke-47"></path>
                        <path d="M73,133 C73,133 68.1915015,113.465489 48,108" id="Stroke-49"></path>
                        <path d="M65,128 C65,128 61.4559835,122.153864 37,116" id="Stroke-51"></path>
                        <path d="M55,128 C55,128 37.9456754,117.442464 13,120.583932" id="Stroke-53"></path>
                        <path d="M57,117 C57,117 42.0450269,106.625161 22,109.50512" id="Stroke-55"></path>
                        <path d="M30,114.041013 C30,114.041013 14.7282945,112.951778 2,122" id="Stroke-57"></path>
                        <path d="M28,108.101563 C28,108.101563 13.2823459,106.392072 0,117" id="Stroke-59"></path>
                        <path d="M31,123.732982 C31,123.732982 9.9741508,121.031902 1,126" id="Stroke-61"></path>
                        <path d="M193,357.393925 C193,357.393925 187.070132,355.863199 182.832804,355.863199 C178.595476,355.863199 171.661087,354.459967 168.893071,354.332473 C166.124258,354.20577 145.722899,348.46614 142.769923,349.358602 C139.816151,350.251063 131.084784,350.761042 129.415364,350.37935 C127.745945,349.996074 126.462389,348.593634 123.124347,349.486096 C119.784711,350.37935 117.345158,349.486096 114.26303,349.230315 C111.181699,348.975326 110.140504,352.526168 108.731782,356.39535 C107.322262,360.266116 101.309482,359.491646 98.7120754,359.491646 C96.1154662,359.491646 93.2581597,358.459811 91.202079,349.171715 C89.145201,339.883619 103.387885,328.531854 106.828771,329.014908 C110.269657,329.498753 115.076214,334.207341 118.777797,334.465497 C122.480177,334.723654 123.908033,327.499227 131.699455,329.305532 C139.492472,331.111837 156.895413,338.593628 166.506136,343.23728 C176.116858,347.881724 193,357.393925 193,357.393925 C193,357.393925 179.789741,367.135775 168.893071,376.954439 C157.996401,386.773894 147.581264,391.332022 135.931203,390.981214 C124.280344,390.631198 109.981853,389.403766 103.980234,377.831854 C99.369798,368.941288 96.321154,363.776571 95.1555898,361.859402 C94.8813394,361.40644 95.0878245,360.822024 95.5853019,360.632762 L97.2443574,360.00004" id="Stroke-63"></path>
                        <path d="M174,356 C174,356 158.293828,356.394979 154.376857,357.47344 C150.459105,358.5519 145.547459,358.320693 143.966762,358.320693 C142.386065,358.320693 136.569601,359.245015 134.432574,358.937246 C132.295547,358.62897 123.511468,357.064264 118.169291,357.499806 C112.827114,357.935348 109,358.597533 109,358.597533" id="Stroke-65"></path>
                        <path d="M28.4131912,0 C28.4131912,0 -10.5553692,33.9777246 2.78034327,144.82305 C2.78034327,157.506366 3.45466117,182.143326 2.78034327,201.638508 C2.10682244,221.13369 2.70860733,250.592354 17.4025204,278.786569 C32.0956365,306.979992 39.6143608,334.834326 42.6894417,340.608329 C45.7653197,346.383124 65.9095706,384.926652 79.521865,402.237569 C93.1341595,419.548486 105.844972,440.43171 109.562488,444.819255 C113.280005,449.207592 127.855155,472.256068 183.911218,460.876814 C239.966484,449.49756 300.760307,404.373506 335.103493,372.198969 C369.447477,340.024432 373,282.579126 373,282.579126" id="Stroke-67"></path>
                    </g>
                </g>
            </g>
        </g>
    </g>
</svg>