<?xml version="1.0" encoding="UTF-8"?>
<svg width="488px" height="638px" viewBox="0 0 488 638" version="1.1" xmlns="http://www.w3.org/2000/svg" xmlns:xlink="http://www.w3.org/1999/xlink">
    <!-- Generator: Sketch 55.2 (78181) - https://sketchapp.com -->
    <title>Group 13</title>
    <desc>Created with Sketch.</desc>
    <g id="Page-1" stroke="none" stroke-width="1" fill="none" fill-rule="evenodd">
        <g id="Group-13" transform="translate(1.000000, 0.000000)">
            <g id="Group-4-Copy">
                <path d="M130.294383,378.302153 C103.900515,349.653475 96.047174,315.793865 106.73436,276.723324 C122.76514,218.117513 219.434761,255.605267 192.217381,274.802633 C165,294 75.549272,208 0,0" id="Path-2" stroke="#3F2811"></path>
                <g id="Group-67" transform="translate(0.000000, 378.000000)">
                    <path d="M180.863767,137 C182.505515,134.289005 189.072507,129.951326 190.896281,126.156019 C192.720494,122.360278 193.449916,116.396349 192.720494,111.877879 C191.990634,107.359409 186.701336,101.756628 182.140584,99.4072143 C177.580709,97.057801 171.743578,93.9852238 168.642547,91.6358105 C165.541516,89.2859626 162.440485,86.9365493 154.049719,81.8761408 C145.658952,76.8152977 150.257426,70 150.257426,70" id="Stroke-1" stroke="#3F2811"></path>
                    <path d="M151.56198,111 C151.56198,111 145.034445,117.834939 146.122295,124.669878 C147.210581,131.504817 148.661193,137.813829 153.556735,137.989138 C158.452713,138.164447 161.534882,136.236892 165.161193,130.804003 C168.787941,125.371114 171.689164,121.164965 177.854373,122.041088 C184.019146,122.917211 184.744234,126.247236 183.475003,128.700718 C182.205773,131.154199 176.222381,132.206053 176.222381,132.206053 C176.222381,132.206053 170.245529,133.523819 165.643423,133.190479" id="Stroke-3" stroke="#3F2811"></path>
                    <path d="M192.171675,120 C192.171675,120 194.035406,122.686902 192.171675,126.435146 C190.308367,130.183389 189.093554,131.789779 187.531832,134.467096 C185.97011,137.144413 183,138.750368 183,138.750368 C183,138.750368 185.401672,142.222819 187.14892,144" id="Stroke-5" stroke="#2D1D0B"></path>
                    <path d="M120.544413,75.214818 C120.544413,75.214818 126.352331,82.544991 120.103988,87.5878307 C113.855645,92.631124 97,82.544991 97,82.544991 C97,82.544991 108.721952,73.5068033 120.544413,75.214818 Z" id="Stroke-7" stroke="#3F2811"></path>
                    <path d="M123,75.6568435 C123,75.6568435 122.009533,69.0770863 115.0192,70.1100331 C108.029299,71.1433859 93.7572415,75.9305094 84,84" id="Stroke-9" stroke="#3F2811"></path>
                    <path d="M113,76 C113,76 113.27925,80.7984642 115.155978,83.5014398 C117.03228,86.204842 117.338815,86.6331544 120,88" id="Stroke-11" stroke="#3F2811"></path>
                    <path d="M119,61 C119,61 123.5,65.7811933 119,70" id="Stroke-13" stroke="#3F2811"></path>
                    <path d="M157,183.960689 C157,183.960689 160.158074,178.289956 166.309013,168.615686 C172.459518,158.941851 179.66416,146.599282 187.864833,145.097848 C196.065506,143.596848 202.049934,159.775885 200.88609,165.446618 C199.722247,171.117352 199.015442,178.662813 194.260335,181.103569 C198.020278,183.322438 202.885091,186.206968 202.995665,191.754141 C203.106239,197.301314 201.138892,206.287734 192.779513,204.845469 C184.419267,203.403204 176.659154,198.299805 171.02943,193.418293 C165.400573,188.536781 157,183.960689 157,183.960689 Z" id="Stroke-15" stroke="#3F2811"></path>
                    <path d="M159,185 C159,185 170.564759,182.357775 176.856946,177.522124 C183.149575,172.686473 186.44372,170.386009 188.223422,170.62284 C190.003124,170.859671 190.340646,170 190.340646,170 C190.340646,170 191.937046,171.93426 193.217515,171.826802 C194.497984,171.719343 196.295752,171.719343 195.958671,173.653603 C195.621149,175.587863 192.363135,180.85335 192.363135,180.85335" id="Stroke-17" stroke="#2D1D0B"></path>
                    <path d="M194,180.414528 C194,180.414528 191.232153,179.477773 189.742191,181 C186.867471,180.129369 185.057725,178.541017 181.119283,179.126489 C177.180007,179.712421 172,180.000335 172,180.000335" id="Stroke-19" stroke="#2D1D0B"></path>
                    <path d="M193.983636,160 C193.983636,160 194.480389,167.434103 190,169" id="Stroke-21" stroke="#2D1D0B"></path>
                    <path d="M154,81.0898006 C154,81.0898006 160.64472,73.0002753 168,83" id="Stroke-23" stroke="#3F2811"></path>
                    <path d="M166.30767,88 C166.30767,88 167.398409,85.356915 166.841753,84.4279452 C164.455843,78.7018918 158,81.8790608 158,81.8790608" id="Stroke-25" stroke="#3F2811"></path>
                    <path d="M130,0 C130,0 141.460766,9.03174988 154.359264,33.7686206 C156.042151,35.7990273 160.528395,43.9215175 162.958553,47.9827625 C165.388711,52.0444392 165.949819,58.6901914 166.884125,64.0434743 C167.819306,69.3971887 170.641016,83.7338887 167.686895,89" id="Stroke-27" stroke="#3F2811"></path>
                    <path d="M160,98 C160,98 169.705525,102.285975 175,107" id="Stroke-29" stroke="#2D1D0B"></path>
                    <path d="M194.553245,203.67583 C194.553245,203.67583 192.492199,209.347307 192.911769,213.029768 C193.330906,216.711795 196.888376,224.391848 195.790739,232.071901 C194.693102,239.751954 191.549573,249.956962 179.391998,255.11206 C167.234856,260.266723 153.806013,259.736 126.343004,256.762908 C98.8799952,253.789816 42.2475522,239.85975 12.2454728,219.883528 C5.5102679,214.966625 0.306125995,207.590835 0,187" id="Stroke-31" stroke="#3F2811"></path>
                    <path d="M125,90 C125,90 122.116031,97.9831595 106,95.5325764" id="Stroke-33" stroke="#3F2811"></path>
                    <path d="M131.367323,85 C131.367323,85 141.843427,100.883656 121,110" id="Stroke-35" stroke="#3F2811"></path>
                    <path d="M125.876034,57 C125.876034,57 126.720773,50.0001448 124,45" id="Stroke-37" stroke="#3F2811"></path>
                    <path d="M123,55 C123,55 121.803915,45.2757514 117,42" id="Stroke-39" stroke="#3F2811"></path>
                    <path d="M122,56 C122,56 119.346361,43.2821001 112,42" id="Stroke-41" stroke="#3F2811"></path>
                    <path d="M118,53 C118,53 114.876213,42.9009458 105,43.0007347" id="Stroke-43" stroke="#3F2811"></path>
                    <path d="M113,51 C113,51 108.838322,43.5359745 95,45.257916" id="Stroke-45" stroke="#3F2811"></path>
                    <path d="M109,50 C109,50 98.0813161,43.25 90,50" id="Stroke-47" stroke="#3F2811"></path>
                    <path d="M106,50.0015549 C106,50.0015549 90.3216746,49.5718321 82,63" id="Stroke-49" stroke="#3F2811"></path>
                    <path d="M97,53 C97,53 89.2475942,55.1109185 86,59" id="Stroke-51" stroke="#3F2811"></path>
                    <path d="M127,58 C127,58 128.886087,51.4314244 129,49" id="Stroke-53" stroke="#3F2811"></path>
                    <path d="M101,51.1843809 C101,51.1843809 94.1845926,48.0389458 87,52" id="Stroke-55" stroke="#3F2811"></path>
                    <path d="M155,62 C155,62 156.108476,55.135463 157,52" id="Stroke-57" stroke="#3F2811"></path>
                    <path d="M158,61 C158,61 158.102026,54.1910163 164,51" id="Stroke-59" stroke="#3F2811"></path>
                    <path d="M160,61 C160,61 160.333568,56.2687098 165,56" id="Stroke-61" stroke="#2D1D0B"></path>
                    <path d="M162.051046,59 C162.051046,59 161.672046,55.7461912 162.999046,54" id="Stroke-63" stroke="#2D1D0B"></path>
                    <path d="M164.001165,61 C164.001165,61 163.883988,58.5421273 166,58" id="Stroke-65" stroke="#2D1D0B"></path>
                </g>
                <circle id="Oval" fill="#FC3C2D" cx="167" cy="476" r="1"></circle>
                <circle id="Oval-Copy-33" fill="#FC3C2D" cx="152" cy="474" r="1"></circle>
                <circle id="Oval-Copy-29" fill="#FC3C2D" cx="171" cy="472" r="1"></circle>
                <circle id="Oval-Copy-32" fill="#FC3C2D" cx="164" cy="471" r="1"></circle>
                <circle id="Oval-Copy-24" fill="#FC3C2D" cx="156" cy="479" r="1"></circle>
                <circle id="Oval-Copy-31" fill="#FC3C2D" cx="160" cy="486" r="1"></circle>
                <circle id="Oval-Copy-25" fill="#FC3C2D" cx="146" cy="486" r="1"></circle>
                <circle id="Oval-Copy-35" fill="#FC3C2D" cx="142" cy="498" r="1"></circle>
                <circle id="Oval-Copy-27" fill="#FC3C2D" cx="129" cy="494" r="1"></circle>
                <circle id="Oval-Copy-30" fill="#FC3C2D" cx="113" cy="502" r="1"></circle>
                <circle id="Oval-Copy-28" fill="#FC3C2D" cx="136" cy="502" r="1"></circle>
                <circle id="Oval-Copy-26" fill="#FC3C2D" cx="161" cy="468" r="1"></circle>
            </g>
            <g id="Group-2-Copy" transform="translate(211.000000, 0.000000)">
                <path d="M41,59 C58.0118726,34.6384709 77.5178089,22.4577064 99.5178089,22.4577064 C132.517809,22.4577064 179.465506,59.6484837 194,0" id="Path-4" stroke="#3F2811"></path>
                <g id="Group-123" transform="translate(0.000000, 58.000000)">
                    <path d="M57.4620206,87 C57.4620206,87 67.8810019,101.677097 64.2204128,110.538579 C60.5598236,119.400061 57.1806276,127.984812 56.0544355,131.861482 C54.9276236,135.738152 39.7218611,154.291919 40.0038739,164.538274 C40.285267,174.784629 45.3534413,186.96871 48.7332572,189.461116 C52.1118335,191.953523 58.0254266,195 58.0254266,195" id="Stroke-1" stroke="#3F2811"></path>
                    <path d="M90,144 C90,144 108.578769,150.180989 114.675417,166.075852 C120.77145,181.970715 104.224283,181.146375 97.5475287,182" id="Stroke-3" stroke="#3F2811"></path>
                    <path d="M48,172 C48,172 52.0588684,183.740757 55.7163102,184.757256 C59.3730961,185.773118 65.6430901,183.398948 64.946497,181.368501 C64.2499038,179.338691 50.7332425,172.280589 48,172 Z" id="Stroke-5" stroke="#3F2811"></path>
                    <path d="M84.0803192,173.714766 C85.7238567,174.684021 87.6168049,175.075203 89.4987226,174.988202 C93.4966488,174.803245 98.9150522,174.073725 97.8683848,171.432118 C96.2413931,167.325028 82.5740497,163.047157 76.0654699,165.956212 C69.5568902,168.865267 66.4652995,171.486252 71.5092803,172.913068 C76.5532611,174.340528 79.1570606,172.341439 81.9226402,172.913068 C82.8449086,173.103826 83.5502447,173.402207 84.0803192,173.714766 Z" id="Stroke-7" stroke="#3F2811"></path>
                    <path d="M119,110 C119,110 124.62483,105.916904 130.71896,99.9285828 C136.813706,93.9402617 154.844202,81.4189868 181,95.3008537 C171.891754,101.561821 167.794922,107.822789 153.828001,108.094775 C139.861695,108.366762 136.776138,106.733523 119,110 Z" id="Stroke-9" stroke="#3F2811"></path>
                    <path d="M118,100 C118,100 124.712329,89.1530023 132,82" id="Stroke-11" stroke="#3F2811"></path>
                    <path d="M117,105 C117,105 126.648649,91.5172414 131,88" id="Stroke-13" stroke="#3F2811"></path>
                    <path d="M151.487151,91 C151.487151,91 147.794697,98.360925 149.407905,102.461206 C151.021113,106.561487 154,109 154,109" id="Stroke-15" stroke="#3F2811"></path>
                    <path d="M172.19642,92 C172.19642,92 174.409282,95.3732347 173.932775,98.0127774 C173.456268,100.65232 171,105 171,105" id="Stroke-17" stroke="#3F2811"></path>
                    <path d="M150,77.6958356 C150,77.6958356 157.23045,73.8802055 169.01604,77.6958356 C180.801,81.5114658 189,84 189,84" id="Stroke-19" stroke="#3F2811"></path>
                    <path d="M150,81.3959458 C150,81.3959458 153.315428,77.4008182 162.535085,79.728372 C171.754743,82.0559258 187.463076,87.511396 189,88" id="Stroke-21" stroke="#3F2811"></path>
                    <path d="M107.166812,108 C107.166812,108 102.291484,95.1481177 107.166812,83.7043077 C112.04214,72.2604977 137.720364,45.6034914 179,64.6910348" id="Stroke-23" stroke="#3F2811"></path>
                    <path d="M58,124.315776 C58,124.315776 36.2238582,117.963084 23.0762087,126.301221 C9.92794188,134.639357 14.9365409,142.969578 14.9365409,142.969578 C14.9365409,142.969578 25.736969,143.7489 37.1632406,137.418736 C48.5895121,131.087962 56.5687072,128.362162 56.5687072,128.362162" id="Stroke-25" stroke="#3F2811"></path>
                    <path d="M61,121 C61,121 46.0535562,103.970902 28.856532,108.893061 C21.1102347,111.090537 16,115.688985 16,115.688985" id="Stroke-27" stroke="#3F2811"></path>
                    <path d="M59,122 C59,122 46.6520637,113.32109 39,113" id="Stroke-29" stroke="#3F2811"></path>
                    <path d="M16,107 C16,107 10.2617942,115.761426 10.7265748,122.394514 C10.700278,125.858217 9.12247017,132.355707 10.700278,136" id="Stroke-31" stroke="#2D1D0B"></path>
                    <path d="M15,148.868127 C15,148.868127 15.7930977,154 20.0757004,154 C24.3589286,154 36.0477382,151.755003 49,137" id="Stroke-33" stroke="#3F2811"></path>
                    <path d="M31.4094718,123 C31.4094718,123 27.5348307,126.610801 29.612443,132.1566 C31.6906436,137.703061 35,140 35,140" id="Stroke-35" stroke="#3F2811"></path>
                    <path d="M52,123 C52,123 53.8274664,126.177835 52.5415216,131" id="Stroke-37" stroke="#3F2811"></path>
                    <path d="M49.5173301,255 C49.5173301,255 44.5756919,243.134731 48.5397546,230.400844 C52.5038173,217.667582 56.5136072,200.013615 71.9780861,207.249175 C75.1283264,208.117167 74.5554993,205.223443 76.8468078,204.065703 C79.1374984,202.907964 103.766594,193.068426 140.709309,229.532852 L143,232.427201 C143,232.427201 123.362596,230.400844 116.428112,231.269461 C109.493629,232.138078 89.2753647,230.979714 84.6358974,233.584316 C79.9964302,236.189542 66.2504327,236.478665 61.6684335,239.083266 C57.0864344,241.687868 49.5173301,255 49.5173301,255 Z" id="Stroke-39" stroke="#3F2811"></path>
                    <path d="M113,230.519624 C113,230.519624 101.344496,222.612816 89.4838666,224.214081 C77.6232374,225.815346 72,236 72,236" id="Stroke-41" stroke="#3F2811"></path>
                    <path d="M139.573661,233 C139.573661,233 142.782924,235.583662 139.573661,237.726975 C136.364397,239.869685 110.95015,248.97244 102.148923,253.144611 C93.3483053,257.316782 71.3116857,264.2702 65.1487524,263.991894 C58.985209,263.714191 48.8748994,263.131678 49.0011716,254.939138" id="Stroke-43" stroke="#3F2811"></path>
                    <path d="M95,70 C95,70 91.7204379,58.1595005 92.0192454,51" id="Stroke-45" stroke="#3F2811"></path>
                    <path d="M97.6,66 C97.6,66 95.2,51.11647 100,45" id="Stroke-47" stroke="#3F2811"></path>
                    <path d="M105,60 C105,60 105.469166,56.4654712 110,48" id="Stroke-49" stroke="#3F2811"></path>
                    <path d="M102,63 C102,63 102.368236,52.500328 105,42" id="Stroke-51" stroke="#3F2811"></path>
                    <path d="M107.954222,61 C107.954222,61 105.910222,52.1828043 107.954222,44" id="Stroke-53" stroke="#3F2811"></path>
                    <path d="M111.126325,60 C111.126325,60 110.08177,45.9565176 114,39" id="Stroke-55" stroke="#3F2811"></path>
                    <path d="M114,55 C114,55 115.809932,41.6684402 120,36" id="Stroke-57" stroke="#3F2811"></path>
                    <path d="M118,56 C118,56 120.240487,42.9692243 126,35" id="Stroke-59" stroke="#3F2811"></path>
                    <path d="M122,54 C122,54 123.29581,39.2829537 132,33" id="Stroke-61" stroke="#3F2811"></path>
                    <path d="M126,52 C126,52 135.917431,38.5734547 148,39.0104399" id="Stroke-63" stroke="#3F2811"></path>
                    <path d="M128.075469,52 C128.075469,52 126.570666,38.8186051 137,33" id="Stroke-65" stroke="#3F2811"></path>
                    <path d="M134.023856,49 C134.023856,49 133.084177,36.7315789 143,31" id="Stroke-67" stroke="#3F2811"></path>
                    <path d="M130,49 C130,49 133.719885,35.2358027 148,32" id="Stroke-69" stroke="#3F2811"></path>
                    <path d="M139,46 C139,46 140.769342,37.8508209 153,31" id="Stroke-71" stroke="#3F2811"></path>
                    <path d="M144,44 C144,44 151.424441,40.6358854 158,40" id="Stroke-73" stroke="#3F2811"></path>
                    <path d="M144,45 C144,45 151.323935,35 164,35" id="Stroke-75" stroke="#3F2811"></path>
                    <path d="M136,46 C136,46 143.432035,33.2675944 159,32" id="Stroke-77" stroke="#3F2811"></path>
                    <path d="M154,39 C154,39 162.791597,34.4130485 172,36.5828679" id="Stroke-79" stroke="#3F2811"></path>
                    <path d="M163,31.5927252 C163,31.5927252 172.157851,28.6171436 181,36" id="Stroke-81" stroke="#3F2811"></path>
                    <path d="M166,39.2916519 C166,39.2916519 175.312288,37.6883654 184,42" id="Stroke-83" stroke="#3F2811"></path>
                    <path d="M198,45 C194.029509,42.3554688 181,39 181,39" id="Stroke-85" stroke="#3F2811"></path>
                    <path d="M187,44 C187,44 196.599649,49.3142179 202,54" id="Stroke-87" stroke="#3F2811"></path>
                    <path d="M167,34 C167,34 183.033776,37.2102699 190,44" id="Stroke-89" stroke="#3F2811"></path>
                    <path d="M193,50 C193,50 205.053097,56.7208967 208,62" id="Stroke-91" stroke="#3F2811"></path>
                    <path d="M51,80 C51,80 42.6849082,66.3187322 36,66" id="Stroke-93" stroke="#3F2811"></path>
                    <path d="M48,78 C48,78 38.9151085,68.9258928 29,68" id="Stroke-95" stroke="#3F2811"></path>
                    <path d="M41,79 C41,79 38.4237773,69.358517 18,71.2445714" id="Stroke-97" stroke="#3F2811"></path>
                    <path d="M44,82 C44,82 33.1952909,70.9293731 15,73.344653" id="Stroke-99" stroke="#3F2811"></path>
                    <path d="M37,82 C37,82 27.273594,75.356199 14,77.3854632" id="Stroke-101" stroke="#3F2811"></path>
                    <path d="M35,83 C35,83 21.8516237,76.524744 8,80.051508" id="Stroke-103" stroke="#3F2811"></path>
                    <path d="M30,84 C30,84 18.9530268,77.77433 7,83.2599365" id="Stroke-105" stroke="#3F2811"></path>
                    <path d="M25,86.0700329 C25,86.0700329 10.6902761,85.2809762 4,89" id="Stroke-107" stroke="#3F2811"></path>
                    <path d="M22,87 C22,87 14.4515526,81.801353 4,85.0909516" id="Stroke-109" stroke="#2D1D0B"></path>
                    <path d="M16,87 C16,87 2.75587385,87.5210267 1,95" id="Stroke-111" stroke="#2D1D0B"></path>
                    <path d="M15,91 C15,91 0.382813463,91.9438086 0,99" id="Stroke-113" stroke="#2D1D0B"></path>
                    <path d="M74,110 C74,110 64.4289079,126.523118 65.026898,136" id="Stroke-115" stroke="#3F2811"></path>
                    <path d="M62,154 C62,154 59.75,158.736589 62,166" id="Stroke-117" stroke="#3F2811"></path>
                    <path d="M61,114 C61,114 55.8228496,91.8045414 38,93.0505658" id="Stroke-119" stroke="#3F2811"></path>
                    <path d="M41.717259,0 C41.717259,0 22.1883201,29.0457941 19.7333688,47.8629308 C18.6419397,55.302178 4.46069796,89.8215896 3.35275979,98.3171706 C2.24543306,106.812136 3.86087051,114.036672 6.58180034,122.772804 C9.30150729,131.508321 15.086999,143.512505 10.8136105,160.663624 C6.54083353,177.814128 3.73491286,188.619248 10.8136105,210.537096 C17.8923082,232.45556 39.6762559,271.969332 43.3577657,280.922022 C47.0398869,289.874712 62.60972,320.436409 69.0916475,324.449493 C75.5729635,328.463192 79.9074965,336.488745 115.017886,328.771418 C150.128275,321.054091 188.479323,299.136242 205.353979,291.727141 C222.228636,284.318039 231.739661,276.600712 243.091748,271.660491 C254.443834,266.7215 263.647914,249.433802 265.488974,238.629298 C267.329424,227.824179 273.773442,199.732592 275,192.323491" id="Stroke-121" stroke="#3F2811"></path>
                </g>
                <circle id="Oval" fill="#FC3C2D" cx="75" cy="191" r="1"></circle>
                <circle id="Oval-Copy-14" fill="#FC3C2D" cx="70" cy="201" r="1"></circle>
                <circle id="Oval-Copy-13" fill="#FC3C2D" cx="72" cy="183" r="1"></circle>
                <circle id="Oval-Copy-8" fill="#FC3C2D" cx="83" cy="197" r="1"></circle>
                <circle id="Oval-Copy-21" fill="#FC3C2D" cx="56" cy="196" r="1"></circle>
                <circle id="Oval-Copy-18" fill="#FC3C2D" cx="33" cy="224" r="1"></circle>
                <circle id="Oval-Copy-6" fill="#FC3C2D" cx="62" cy="194" r="1"></circle>
                <circle id="Oval-Copy-12" fill="#FC3C2D" cx="65" cy="183" r="1"></circle>
                <circle id="Oval-Copy-3" fill="#FC3C2D" cx="88" cy="187" r="1"></circle>
                <circle id="Oval-Copy-7" fill="#FC3C2D" cx="57" cy="202" r="1"></circle>
                <circle id="Oval-Copy-4" fill="#FC3C2D" cx="104" cy="193" r="1"></circle>
                <circle id="Oval-Copy-17" fill="#FC3C2D" cx="39" cy="212" r="1"></circle>
                <circle id="Oval-Copy-15" fill="#FC3C2D" cx="130" cy="193" r="1"></circle>
                <circle id="Oval-Copy-11" fill="#FC3C2D" cx="61" cy="187" r="1"></circle>
                <circle id="Oval-Copy-10" fill="#FC3C2D" cx="98" cy="184" r="1"></circle>
                <circle id="Oval-Copy-9" fill="#FC3C2D" cx="109" cy="191" r="1"></circle>
                <circle id="Oval-Copy-20" fill="#FC3C2D" cx="80" cy="188" r="1"></circle>
                <circle id="Oval-Copy-19" fill="#FC3C2D" cx="119" cy="187" r="1"></circle>
                <circle id="Oval-Copy-16" fill="#FC3C2D" cx="117" cy="201" r="1"></circle>
                <circle id="Oval-Copy-22" fill="#FC3C2D" cx="148" cy="203" r="1"></circle>
                <circle id="Oval-Copy-5" fill="#FC3C2D" cx="76" cy="179" r="1"></circle>
            </g>
            <path d="M486,376 C383.719858,450.316051 313.302464,482.068219 274.747819,471.256506 C216.91585,455.038936 250.781417,405.13872 313.302464,445.370769 C375.823511,485.602818 344.562988,513.109461 313.302464,530.08305 C282.041941,547.056639 283,630 486,563" id="Path-6-Copy" stroke="#3F2811"></path>
        </g>
    </g>
</svg>