<?xml version="1.0" encoding="UTF-8"?>
<svg width="1604px" height="1204px" viewBox="0 0 1604 1204" version="1.1" xmlns="http://www.w3.org/2000/svg" xmlns:xlink="http://www.w3.org/1999/xlink">
    <!-- Generator: Sketch 55.2 (78181) - https://sketchapp.com -->
    <title>Group 15</title>
    <desc>Created with Sketch.</desc>
    <g id="Page-1" stroke="none" stroke-width="1" fill="none" fill-rule="evenodd">
        <g id="Group-14" transform="translate(1.000000, -241.500000)">
            <g id="Group-15" transform="translate(0.520000, 0.000000)">
                <g id="Group-4-Copy-3" transform="translate(3.480000, 0.000000)">
                    <g id="Group-67" transform="translate(0.000000, 748.500000)" stroke-width="2.25">
                        <path d="M579.570211,367.625483 C583.977859,360.350804 601.608454,348.711086 606.504794,338.526769 C611.402312,328.341287 613.360613,312.337694 611.402312,300.212842 C609.442834,288.087989 595.242504,273.053499 582.99812,266.749088 C570.756091,260.444678 555.084975,252.199732 546.759547,245.895322 C538.43412,239.589745 530.108692,233.285335 507.581757,219.706247 C485.054822,206.125992 497.400477,187.837838 497.400477,187.837838" id="Stroke-1" stroke="#3F2811"></path>
                        <path d="M500.902854,297.857143 C500.902854,297.857143 483.378191,316.198002 486.298773,334.538862 C489.220526,352.879721 493.115025,369.809311 506.25823,370.279734 C519.402605,370.750158 527.677392,365.577761 537.413056,350.999159 C547.14989,336.420556 554.938889,325.133786 571.490805,327.484772 C588.041551,329.835758 589.988215,338.771542 586.580674,345.355208 C583.173133,351.938875 567.109347,354.761415 567.109347,354.761415 C567.109347,354.761415 551.063119,358.297507 538.707711,357.403024" id="Stroke-3" stroke="#3F2811"></path>
                        <path d="M609.928881,322.007722 C609.928881,322.007722 614.932494,329.217749 609.928881,339.275777 C604.926405,349.333805 601.664959,353.644389 597.472159,360.828695 C593.279359,368.013001 585.305419,372.322415 585.305419,372.322415 C585.305419,372.322415 591.753257,381.640384 596.444144,386.409266" id="Stroke-5" stroke="#2D1D0B"></path>
                        <path d="M417.62909,201.831268 C417.62909,201.831268 433.221776,221.501038 416.446667,235.032982 C399.671558,248.566144 354.418719,221.501038 354.418719,221.501038 C354.418719,221.501038 385.888985,197.247986 417.62909,201.831268 Z" id="Stroke-7" stroke="#3F2811"></path>
                        <path d="M424.221675,203.017399 C424.221675,203.017399 421.56254,185.361293 402.795389,188.1331 C384.029398,190.905997 345.712791,203.751753 319.517241,225.405405" id="Stroke-9" stroke="#3F2811"></path>
                        <path d="M397.374384,203.938224 C397.374384,203.938224 398.124094,216.814412 403.162601,224.06757 C408.199963,231.321873 409.022926,232.471206 416.167488,236.138996" id="Stroke-11" stroke="#3F2811"></path>
                        <path d="M413.482759,163.687259 C413.482759,163.687259 425.564039,176.517102 413.482759,187.837838" id="Stroke-13" stroke="#3F2811"></path>
                        <path d="M515.502463,493.639687 C515.502463,493.639687 523.981037,478.422854 540.494641,452.462941 C557.00708,426.504195 576.349592,393.384175 598.366178,389.355228 C620.382763,385.327449 636.44933,428.742239 633.324725,443.959073 C630.200121,459.175906 628.302541,479.423377 615.536367,485.972897 C625.630795,491.927005 638.691501,499.667346 638.988362,514.552617 C639.285222,529.437889 634.00343,553.552028 611.560762,549.681858 C589.115766,545.811687 568.281966,532.117237 553.167682,519.018199 C538.055727,505.91916 515.502463,493.639687 515.502463,493.639687 Z" id="Stroke-15" stroke="#3F2811"></path>
                        <path d="M520.871921,496.428571 C520.871921,496.428571 551.920165,489.338431 568.812984,476.362456 C585.706986,463.386481 594.550874,457.213423 599.328892,457.848934 C604.106909,458.484446 605.013065,456.177606 605.013065,456.177606 C605.013065,456.177606 609.298967,461.367996 612.736679,461.079641 C616.174392,460.791286 621.000911,460.791286 620.095939,465.981676 C619.189783,471.172066 610.442899,485.301461 610.442899,485.301461" id="Stroke-17" stroke="#2D1D0B"></path>
                        <path d="M614.837438,484.123926 C614.837438,484.123926 607.406519,481.610239 603.406376,485.694981 C595.688531,483.35873 590.829853,479.096552 580.256204,480.667607 C569.680314,482.239893 555.773399,483.012482 555.773399,483.012482" id="Stroke-19" stroke="#2D1D0B"></path>
                        <path d="M614.793506,429.343629 C614.793506,429.343629 616.127152,449.292283 604.098522,453.494208" id="Stroke-21" stroke="#2D1D0B"></path>
                        <path d="M507.448276,217.596183 C507.448276,217.596183 525.287549,195.88877 545.034483,222.722008" id="Stroke-23" stroke="#3F2811"></path>
                        <path d="M540.491036,236.138996 C540.491036,236.138996 543.419373,229.046548 541.924904,226.553753 C535.519381,211.188474 518.187192,219.714082 518.187192,219.714082" id="Stroke-25" stroke="#3F2811"></path>
                        <path d="M443.014778,0 C443.014778,0 473.783831,24.2357767 508.412801,90.6146382 C512.930898,96.063027 524.975247,117.858898 531.499563,128.756834 C538.023879,139.655927 539.530302,157.489124 542.038662,171.85411 C544.549368,186.220255 552.124895,224.691323 544.19388,238.822394" id="Stroke-27" stroke="#3F2811"></path>
                        <path d="M523.55665,262.972973 C523.55665,262.972973 549.613355,274.473949 563.827586,287.123552" id="Stroke-29" stroke="#2D1D0B"></path>
                        <path d="M616.322751,546.543249 C616.322751,546.543249 610.7894,561.762078 611.915832,571.643586 C613.041102,581.523928 622.591945,602.132565 619.645087,622.741201 C616.698228,643.349838 608.258706,670.733932 575.61891,684.56711 C542.980277,698.399122 506.927474,696.974982 433.196735,688.996993 C359.465997,681.019005 207.423231,643.639098 126.875777,590.034949 C108.793576,576.840942 1.10186535,484.597029 0.28,429.343629" id="Stroke-31" stroke="#3F2811"></path>
                        <path d="M429.591133,241.505792 C429.591133,241.505792 421.848458,262.927783 378.581281,256.351894" id="Stroke-33" stroke="#3F2811"></path>
                        <path d="M446.685671,228.088803 C446.685671,228.088803 474.811172,270.710969 418.852217,295.173745" id="Stroke-35" stroke="#3F2811"></path>
                        <path d="M431.943048,152.953668 C431.943048,152.953668 434.210944,134.170273 426.906404,120.752896" id="Stroke-37" stroke="#3F2811"></path>
                        <path d="M424.221675,147.586873 C424.221675,147.586873 421.010511,121.492846 408.1133,112.702703" id="Stroke-39" stroke="#3F2811"></path>
                        <path d="M421.536946,150.27027 C421.536946,150.27027 414.412645,116.143087 394.689655,112.702703" id="Stroke-41" stroke="#3F2811"></path>
                        <path d="M410.79803,142.220077 C410.79803,142.220077 402.411507,115.120298 375.896552,115.388072" id="Stroke-43" stroke="#3F2811"></path>
                        <path d="M397.374384,136.853282 C397.374384,136.853282 386.201407,116.824333 349.049261,121.444987" id="Stroke-45" stroke="#3F2811"></path>
                        <path d="M386.635468,134.169884 C386.635468,134.169884 357.32176,116.05695 335.625616,134.169884" id="Stroke-47" stroke="#3F2811"></path>
                        <path d="M378.581281,134.174057 C378.581281,134.174057 336.489225,133.020939 314.147783,169.054054" id="Stroke-49" stroke="#3F2811"></path>
                        <path d="M354.418719,142.220077 C354.418719,142.220077 333.60561,147.884511 324.8867,158.320463" id="Stroke-51" stroke="#3F2811"></path>
                        <path d="M434.960591,155.637066 C434.960591,155.637066 440.024222,138.010965 440.330049,131.486486" id="Stroke-53" stroke="#3F2811"></path>
                        <path d="M365.157635,137.348049 C365.157635,137.348049 346.860113,128.907596 327.571429,139.53668" id="Stroke-55" stroke="#3F2811"></path>
                        <path d="M510.133005,166.370656 C510.133005,166.370656 513.108963,147.950374 515.502463,139.53668" id="Stroke-57" stroke="#3F2811"></path>
                        <path d="M518.187192,163.687259 C518.187192,163.687259 518.461104,145.416048 534.295567,136.853282" id="Stroke-59" stroke="#3F2811"></path>
                        <path d="M523.55665,163.687259 C523.55665,163.687259 524.452189,150.991326 536.980296,150.27027" id="Stroke-61" stroke="#2D1D0B"></path>
                        <path d="M529.063153,158.320463 C529.063153,158.320463 528.04564,149.5892 531.608276,144.903475" id="Stroke-63" stroke="#2D1D0B"></path>
                        <path d="M534.298694,163.687259 C534.298694,163.687259 533.984105,157.091809 539.665025,155.637066" id="Stroke-65" stroke="#2D1D0B"></path>
                    </g>
                    <circle id="Oval" fill="#FC3C2D" cx="542" cy="1010.5" r="3"></circle>
                    <circle id="Oval-Copy-33" fill="#FC3C2D" cx="501" cy="1005.5" r="3"></circle>
                    <circle id="Oval-Copy-29" fill="#FC3C2D" cx="554" cy="1000.5" r="3"></circle>
                    <circle id="Oval-Copy-32" fill="#FC3C2D" cx="534" cy="997.5" r="3"></circle>
                    <circle id="Oval-Copy-24" fill="#FC3C2D" cx="512" cy="1018.5" r="3"></circle>
                    <circle id="Oval-Copy-31" fill="#FC3C2D" cx="525" cy="1038.5" r="3"></circle>
                    <circle id="Oval-Copy-25" fill="#FC3C2D" cx="485" cy="1038.5" r="3"></circle>
                    <circle id="Oval-Copy-35" fill="#FC3C2D" cx="475" cy="1071.5" r="3"></circle>
                    <circle id="Oval-Copy-27" fill="#FC3C2D" cx="440" cy="1058.5" r="3"></circle>
                    <circle id="Oval-Copy-30" fill="#FC3C2D" cx="397" cy="1081.5" r="3"></circle>
                    <circle id="Oval-Copy-28" fill="#FC3C2D" cx="460" cy="1081.5" r="3"></circle>
                    <circle id="Oval-Copy-26" fill="#FC3C2D" cx="525" cy="990.5" r="3"></circle>
                    <circle id="Oval-Copy-37" fill="#FC3C2D" cx="578" cy="1018.5" r="3"></circle>
                </g>
                <g id="Group-2-Copy-3" transform="translate(865.480000, 242.000000)">
                    <path d="M108,158.5 C153.476182,93.260651 205.619502,60.6409765 264.42996,60.6409765 C352.645646,60.6409765 478.146352,160.236617 517,0.5" id="Path-4" stroke="#3F2811" stroke-width="2.25"></path>
                    <g id="Group-123" transform="translate(0.000000, 155.500000)" stroke-width="2.25">
                        <path d="M153.58031,232.436747 C153.58031,232.436747 181.427405,271.649351 171.643649,295.324456 C161.859892,318.99956 152.828223,341.935327 149.818218,352.292574 C146.806558,362.649822 106.165701,412.219674 106.919445,439.594726 C107.671532,466.969778 121.217379,499.521825 130.250706,506.180754 C139.280719,512.839682 155.08614,520.978916 155.08614,520.978916" id="Stroke-1" stroke="#3F2811"></path>
                        <path d="M240.545455,384.722892 C240.545455,384.722892 290.201436,401.236559 306.496114,443.702653 C322.789149,486.168748 278.563085,483.966371 260.71794,486.246988" id="Stroke-3" stroke="#3F2811"></path>
                        <path d="M128.290909,459.53012 C128.290909,459.53012 139.139157,490.897746 148.914502,493.613514 C158.688093,496.327577 175.446077,489.984539 173.584274,484.559819 C171.72247,479.136803 135.596121,460.279768 128.290909,459.53012 Z" id="Stroke-5" stroke="#3F2811"></path>
                        <path d="M224.723762,464.111438 C229.11649,466.700984 234.175824,467.746101 239.205677,467.513661 C249.891043,467.019512 264.372958,465.070465 261.575501,458.012918 C257.226996,447.040058 220.697915,435.610929 203.302256,443.383013 C185.906597,451.155096 177.643619,458.157547 191.124804,461.969552 C204.605989,465.783279 211.565235,460.442339 218.956875,461.969552 C221.421847,462.479197 223.307018,463.276378 224.723762,464.111438 Z" id="Stroke-7" stroke="#3F2811"></path>
                        <path d="M318.054545,293.885542 C318.054545,293.885542 333.088182,282.976788 349.37613,266.97787 C365.665724,250.978952 413.856322,217.526028 483.763636,254.614028 C459.419779,271.341372 448.470064,288.068716 411.140293,288.795378 C373.812167,289.522041 365.565313,285.158539 318.054545,293.885542 Z" id="Stroke-9" stroke="#3F2811"></path>
                        <path d="M315.381818,267.168675 C315.381818,267.168675 333.322042,238.188895 352.8,219.078313" id="Stroke-11" stroke="#3F2811"></path>
                        <path d="M312.709091,280.527108 C312.709091,280.527108 338.497297,244.505401 350.127273,235.108434" id="Stroke-13" stroke="#3F2811"></path>
                        <path d="M404.88384,243.123494 C404.88384,243.123494 395.014916,262.78958 399.326582,273.744246 C403.638247,284.698912 411.6,291.213855 411.6,291.213855" id="Stroke-15" stroke="#3F2811"></path>
                        <path d="M460.234068,245.795181 C460.234068,245.795181 466.148443,254.807407 464.874871,261.859438 C463.601299,268.91147 457.036364,280.527108 457.036364,280.527108" id="Stroke-17" stroke="#3F2811"></path>
                        <path d="M400.909091,207.578934 C400.909091,207.578934 420.234112,197.384766 451.73378,207.578934 C483.231765,217.773103 505.145455,224.421687 505.145455,224.421687" id="Stroke-19" stroke="#3F2811"></path>
                        <path d="M400.909091,217.46447 C400.909091,217.46447 409.770325,206.79074 434.411955,213.009235 C459.053585,219.22773 501.037676,233.803037 505.145455,235.108434" id="Stroke-21" stroke="#3F2811"></path>
                        <path d="M286.427662,288.542169 C286.427662,288.542169 273.39724,254.205965 286.427662,223.631689 C299.458085,193.057414 368.088972,121.838244 478.418182,172.83418" id="Stroke-23" stroke="#3F2811"></path>
                        <path d="M155.018182,332.132812 C155.018182,332.132812 96.8164938,315.160409 61.6764122,337.437297 C26.534681,359.714185 39.9213002,381.969927 39.9213002,381.969927 C39.9213002,381.969927 68.787899,384.052031 99.3272066,367.139814 C129.866514,350.225971 151.192727,342.943487 151.192727,342.943487" id="Stroke-25" stroke="#3F2811"></path>
                        <path d="M163.036364,323.274096 C163.036364,323.274096 123.088596,277.777681 77.1256399,290.928147 C56.4219001,296.799116 42.7636364,309.084727 42.7636364,309.084727" id="Stroke-27" stroke="#3F2811"></path>
                        <path d="M157.690909,325.945783 C157.690909,325.945783 124.688243,302.758454 104.236364,301.900602" id="Stroke-29" stroke="#3F2811"></path>
                        <path d="M42.7636364,285.870482 C42.7636364,285.870482 27.4269772,309.278267 28.669209,326.999801 C28.5989249,336.253731 24.3818748,353.612988 28.5989249,363.349398" id="Stroke-31" stroke="#2D1D0B"></path>
                        <path d="M40.0909091,397.729003 C40.0909091,397.729003 42.210643,411.439759 53.6568721,411.439759 C65.1047728,411.439759 96.345773,405.441831 130.963636,366.021084" id="Stroke-33" stroke="#3F2811"></path>
                        <path d="M83.9489519,328.61747 C83.9489519,328.61747 73.5930929,338.2644 79.145984,353.081036 C84.7004473,367.899443 93.5454545,374.036145 93.5454545,374.036145" id="Stroke-35" stroke="#3F2811"></path>
                        <path d="M138.981818,328.61747 C138.981818,328.61747 143.866137,337.10765 140.429158,349.990964" id="Stroke-37" stroke="#3F2811"></path>
                        <path d="M132.346319,681.28012 C132.346319,681.28012 119.138668,649.579837 129.733526,615.558882 C140.328384,581.539595 151.045459,534.373724 192.377794,553.704874 C200.797527,556.023878 199.266516,548.292753 205.390559,545.199635 C211.51295,542.106518 277.339805,515.818356 376.077609,613.239878 L382.2,620.972672 C382.2,620.972672 329.714575,615.558882 311.180592,617.879554 C292.646609,620.200226 238.608702,617.105441 226.208671,624.064121 C213.808641,631.024469 177.069338,631.796914 164.822904,638.755595 C152.57647,645.714275 132.346319,681.28012 132.346319,681.28012 Z" id="Stroke-39" stroke="#3F2811"></path>
                        <path d="M302.018182,615.876224 C302.018182,615.876224 270.866198,594.75171 239.165971,599.029789 C207.465744,603.307867 192.436364,630.518072 192.436364,630.518072" id="Stroke-41" stroke="#3F2811"></path>
                        <path d="M373.042329,622.503012 C373.042329,622.503012 381.619816,629.405747 373.042329,635.132008 C364.464842,640.856659 296.539493,665.176368 273.016212,676.323102 C249.494561,687.469836 190.596687,706.047191 174.124847,705.303646 C157.651377,704.56171 130.629277,703.005416 130.966768,681.117518" id="Stroke-43" stroke="#3F2811"></path>
                        <path d="M253.909091,187.018072 C253.909091,187.018072 245.143716,155.383967 245.942347,136.256024" id="Stroke-45" stroke="#3F2811"></path>
                        <path d="M260.858182,176.331325 C260.858182,176.331325 254.443636,136.567195 267.272727,120.225904" id="Stroke-47" stroke="#3F2811"></path>
                        <path d="M280.636364,160.301205 C280.636364,160.301205 281.890315,150.858051 294,128.240964" id="Stroke-49" stroke="#3F2811"></path>
                        <path d="M272.618182,168.316265 C272.618182,168.316265 273.602377,140.26443 280.636364,112.210843" id="Stroke-51" stroke="#3F2811"></path>
                        <path d="M288.532194,162.972892 C288.532194,162.972892 283.069139,139.416107 288.532194,117.554217" id="Stroke-53" stroke="#3F2811"></path>
                        <path d="M297.010359,160.301205 C297.010359,160.301205 294.21855,122.781419 304.690909,104.195783" id="Stroke-55" stroke="#3F2811"></path>
                        <path d="M304.690909,146.942771 C304.690909,146.942771 309.528364,111.325019 320.727273,96.1807229" id="Stroke-57" stroke="#3F2811"></path>
                        <path d="M315.381818,149.614458 C315.381818,149.614458 321.370029,114.800307 336.763636,93.5090361" id="Stroke-59" stroke="#3F2811"></path>
                        <path d="M326.072727,144.271084 C326.072727,144.271084 329.536074,104.951747 352.8,88.1656627" id="Stroke-61" stroke="#3F2811"></path>
                        <path d="M336.763636,138.927711 C336.763636,138.927711 363.270225,103.056188 395.563636,104.223675" id="Stroke-63" stroke="#3F2811"></path>
                        <path d="M342.310799,138.927711 C342.310799,138.927711 338.288871,103.711153 366.163636,88.1656627" id="Stroke-65" stroke="#3F2811"></path>
                        <path d="M358.209214,130.912651 C358.209214,130.912651 355.697709,98.1352727 382.2,82.8222892" id="Stroke-67" stroke="#3F2811"></path>
                        <path d="M347.454545,130.912651 C347.454545,130.912651 357.396783,94.139027 395.563636,85.4939759" id="Stroke-69" stroke="#3F2811"></path>
                        <path d="M371.509091,122.89759 C371.509091,122.89759 376.238059,101.125536 408.927273,82.8222892" id="Stroke-71" stroke="#3F2811"></path>
                        <path d="M384.872727,117.554217 C384.872727,117.554217 404.716232,108.566357 422.290909,106.86747" id="Stroke-73" stroke="#3F2811"></path>
                        <path d="M384.872727,120.225904 C384.872727,120.225904 404.447607,93.5090361 438.327273,93.5090361" id="Stroke-75" stroke="#3F2811"></path>
                        <path d="M363.490909,122.89759 C363.490909,122.89759 383.354712,88.8805911 424.963636,85.4939759" id="Stroke-77" stroke="#3F2811"></path>
                        <path d="M411.6,104.195783 C411.6,104.195783 435.097541,91.9408857 459.709091,97.7379633" id="Stroke-79" stroke="#3F2811"></path>
                        <path d="M435.654545,84.4058653 C435.654545,84.4058653 460.130982,76.4560434 483.763636,96.1807229" id="Stroke-81" stroke="#3F2811"></path>
                        <path d="M443.672727,104.974986 C443.672727,104.974986 468.561934,100.691506 491.781818,112.210843" id="Stroke-83" stroke="#3F2811"></path>
                        <path d="M529.2,120.225904 C518.58796,113.160545 483.763636,104.195783 483.763636,104.195783" id="Stroke-85" stroke="#3F2811"></path>
                        <path d="M499.8,117.554217 C499.8,117.554217 525.457245,131.752142 539.890909,144.271084" id="Stroke-87" stroke="#3F2811"></path>
                        <path d="M446.345455,90.8373494 C446.345455,90.8373494 489.199366,99.4141849 507.818182,117.554217" id="Stroke-89" stroke="#3F2811"></path>
                        <path d="M515.836364,133.584337 C515.836364,133.584337 548.051006,151.540468 555.927273,165.644578" id="Stroke-91" stroke="#3F2811"></path>
                        <path d="M136.309091,213.73494 C136.309091,213.73494 114.085118,177.182878 96.2181818,176.331325" id="Stroke-93" stroke="#3F2811"></path>
                        <path d="M128.290909,208.391566 C128.290909,208.391566 104.009472,184.148394 77.5090909,181.674699" id="Stroke-95" stroke="#3F2811"></path>
                        <path d="M109.581818,211.063253 C109.581818,211.063253 102.696277,185.304231 48.1090909,190.343177" id="Stroke-97" stroke="#3F2811"></path>
                        <path d="M117.6,219.078313 C117.6,219.078313 88.7219592,189.501066 40.0909091,195.953937" id="Stroke-99" stroke="#3F2811"></path>
                        <path d="M98.8909091,219.078313 C98.8909091,219.078313 72.8948786,201.328158 37.4181818,206.749716" id="Stroke-101" stroke="#3F2811"></path>
                        <path d="M93.5454545,221.75 C93.5454545,221.75 58.4034306,204.450144 21.3818182,213.872553" id="Stroke-103" stroke="#3F2811"></path>
                        <path d="M80.1818182,224.421687 C80.1818182,224.421687 50.6562715,207.788647 18.7090909,222.444469" id="Stroke-105" stroke="#3F2811"></path>
                        <path d="M66.8181818,229.952166 C66.8181818,229.952166 28.5721924,227.844054 10.6909091,237.78012" id="Stroke-107" stroke="#3F2811"></path>
                        <path d="M58.8,232.436747 C58.8,232.436747 38.6250588,218.547591 10.6909091,227.336368" id="Stroke-109" stroke="#2D1D0B"></path>
                        <path d="M42.7636364,232.436747 C42.7636364,232.436747 7.36569921,233.828767 2.67272727,253.810241" id="Stroke-111" stroke="#2D1D0B"></path>
                        <path d="M40.0909091,243.123494 C40.0909091,243.123494 1.02315598,245.645055 0,264.496988" id="Stroke-113" stroke="#2D1D0B"></path>
                        <path d="M197.781818,293.885542 C197.781818,293.885542 172.200899,338.030137 173.799164,363.349398" id="Stroke-115" stroke="#3F2811"></path>
                        <path d="M165.709091,411.439759 C165.709091,411.439759 159.695455,424.094442 165.709091,443.5" id="Stroke-117" stroke="#3F2811"></path>
                        <path d="M163.036364,304.572289 C163.036364,304.572289 149.199252,245.272977 101.563636,248.601964" id="Stroke-119" stroke="#3F2811"></path>
                        <path d="M111.498856,0 C111.498856,0 59.3033284,77.6012631 52.7419131,127.874758 C49.8248206,147.750096 11.9222291,239.975151 8.96101253,262.672682 C6.00143019,285.368569 10.3190539,304.670264 17.5913573,328.010473 C24.8603922,351.349038 40.3234337,383.420458 28.9018318,429.242876 C17.4818642,475.06365 9.98240345,503.931544 28.9018318,562.489169 C47.8212602,621.048438 106.043811,726.61686 115.883483,750.535642 C125.724789,774.454425 167.338706,856.105708 184.663131,866.827411 C201.985921,877.550757 213.570945,898.99252 307.411441,878.374239 C401.251936,857.755959 503.753826,799.198334 548.855181,779.403536 C593.956536,759.608738 619.376913,738.990458 649.717943,725.791734 C680.058974,712.596298 704.65897,666.408983 709.579623,637.542733 C714.498641,608.67484 731.721744,533.622919 735,513.828121" id="Stroke-121" stroke="#3F2811"></path>
                    </g>
                    <circle id="Oval" fill="#FC3C2D" cx="200" cy="509.5" r="3"></circle>
                    <circle id="Oval-Copy-14" fill="#FC3C2D" cx="186" cy="538.5" r="3"></circle>
                    <circle id="Oval-Copy-13" fill="#FC3C2D" cx="193" cy="488.5" r="3"></circle>
                    <circle id="Oval-Copy-8" fill="#FC3C2D" cx="220" cy="526.5" r="3"></circle>
                    <circle id="Oval-Copy-21" fill="#FC3C2D" cx="151" cy="523.5" r="3"></circle>
                    <circle id="Oval-Copy-18" fill="#FC3C2D" cx="87" cy="597.5" r="3"></circle>
                    <circle id="Oval-Copy-6" fill="#FC3C2D" cx="165" cy="518.5" r="3"></circle>
                    <circle id="Oval-Copy-12" fill="#FC3C2D" cx="175" cy="488.5" r="3"></circle>
                    <circle id="Oval-Copy-3" fill="#FC3C2D" cx="235" cy="499.5" r="3"></circle>
                    <circle id="Oval-Copy-7" fill="#FC3C2D" cx="152" cy="539.5" r="3"></circle>
                    <circle id="Oval-Copy-4" fill="#FC3C2D" cx="277" cy="515.5" r="3"></circle>
                    <circle id="Oval-Copy-17" fill="#FC3C2D" cx="104" cy="566.5" r="3"></circle>
                    <circle id="Oval-Copy-15" fill="#FC3C2D" cx="348" cy="515.5" r="3"></circle>
                    <circle id="Oval-Copy-11" fill="#FC3C2D" cx="163" cy="499.5" r="3"></circle>
                    <circle id="Oval-Copy-10" fill="#FC3C2D" cx="262" cy="492.5" r="3"></circle>
                    <circle id="Oval-Copy-9" fill="#FC3C2D" cx="291" cy="509.5" r="3"></circle>
                    <circle id="Oval-Copy-20" fill="#FC3C2D" cx="215" cy="502.5" r="3"></circle>
                    <circle id="Oval-Copy-19" fill="#FC3C2D" cx="318" cy="499.5" r="3"></circle>
                    <circle id="Oval-Copy-16" fill="#FC3C2D" cx="313" cy="538.5" r="3"></circle>
                    <circle id="Oval-Copy-22" fill="#FC3C2D" cx="395" cy="542.5" r="3"></circle>
                    <circle id="Oval-Copy-5" fill="#FC3C2D" cx="203" cy="478.5" r="3"></circle>
                </g>
                <path d="M389.48,561.119846 C538.156829,557.897817 633.376713,593.60973 675.139653,668.255586 C737.784062,780.22437 611.45003,804.603582 577.987713,649.181701 C544.525396,493.75982 633.135443,499.354429 705.84751,520.899534 C778.559577,542.44464 778.559577,397.5 510.928276,242.5" id="Path-6-Copy-3" stroke="#3F2811" stroke-width="2.25"></path>
                <path d="M389.48,562 C169.765753,576.420065 39.9390863,666.748378 -2.27373675e-13,832.98494" id="Path-22-Copy-2" stroke="#3F2811" stroke-width="2.25"></path>
            </g>
        </g>
    </g>
</svg>