<?xml version="1.0" encoding="UTF-8"?>
<svg width="1395px" height="1111px" viewBox="0 0 1395 1111" version="1.1" xmlns="http://www.w3.org/2000/svg" xmlns:xlink="http://www.w3.org/1999/xlink">
    <!-- Generator: Sketch 55.2 (78181) - https://sketchapp.com -->
    <title>hero copy</title>
    <desc>Created with Sketch.</desc>
    <g id="Page-1" stroke="none" stroke-width="1" fill="none" fill-rule="evenodd">
        <g id="hero-copy" transform="translate(1.000000, -139.500000)">
            <g id="Group" transform="translate(0.000000, 0.500000)">
                <g id="Group-4-Copy">
                    <g id="Group-67" transform="translate(0.000000, 647.350584)" stroke-width="1.5">
                        <path d="M464.373903,318.086481 C468.185576,311.792094 483.432269,301.720874 487.666556,292.908935 C491.901861,284.095987 493.595372,270.248943 491.901861,259.757962 C490.207332,249.266982 477.927084,236.258449 467.338311,230.803583 C456.751575,225.348718 443.199412,218.214811 435.999698,212.759945 C428.799984,207.30407 421.60027,201.849205 402.119291,190.099952 C382.638311,178.349691 393.314662,162.525939 393.314662,162.525939" id="Stroke-1" stroke="#3F2811"></path>
                        <path d="M396.343468,257.719703 C396.343468,257.719703 381.188384,273.589059 383.714063,289.458414 C386.240754,305.32777 389.608663,319.976029 400.974723,320.383061 C412.341795,320.790093 419.497716,316.314698 427.916983,303.70062 C436.337261,291.086542 443.073079,281.32071 457.386946,283.354891 C471.6998,285.389073 473.383248,293.120724 470.436454,298.817215 C467.48966,304.513706 453.597921,306.955898 453.597921,306.955898 C453.597921,306.955898 439.721367,310.015487 429.036582,309.241539" id="Stroke-3" stroke="#3F2811"></path>
                        <path d="M490.627659,278.615895 C490.627659,278.615895 494.954714,284.854342 490.627659,293.557011 C486.301587,302.25968 483.481134,305.989395 479.855259,312.205587 C476.229383,318.421779 469.333631,322.150483 469.333631,322.150483 C469.333631,322.150483 474.909631,330.212818 478.966245,334.339075" id="Stroke-5" stroke="#2D1D0B"></path>
                        <path d="M324.329476,174.633699 C324.329476,174.633699 337.813815,191.652888 323.306934,203.361349 C308.800054,215.070863 269.666028,191.652888 269.666028,191.652888 C269.666028,191.652888 296.881076,170.668032 324.329476,174.633699 Z" id="Stroke-7" stroke="#3F2811"></path>
                        <path d="M330.030652,175.659993 C330.030652,175.659993 327.73107,160.383119 311.501498,162.781414 C295.272931,165.180651 262.137263,176.295391 239.483716,195.031127" id="Stroke-9" stroke="#3F2811"></path>
                        <path d="M306.813489,176.456734 C306.813489,176.456734 307.461828,187.597804 311.819058,193.87357 C316.175299,200.150327 316.886986,201.144782 323.065503,204.318323" id="Stroke-11" stroke="#3F2811"></path>
                        <path d="M320.743787,141.629747 C320.743787,141.629747 331.191511,152.730717 320.743787,162.525939" id="Stroke-13" stroke="#3F2811"></path>
                        <path d="M408.969007,427.119768 C408.969007,427.119768 416.30116,413.953463 430.581894,391.491752 C444.861622,369.031051 461.588756,340.374086 480.628393,336.888056 C499.66803,333.403036 513.562173,370.96751 510.860059,384.133815 C508.157945,397.300119 506.516944,414.819163 495.476934,420.486108 C504.206455,425.637877 515.501172,432.335176 515.757893,445.214597 C516.014614,458.094019 511.446994,478.958682 492.038886,475.610032 C472.628766,472.261382 454.611986,460.412315 441.541364,449.078424 C428.472755,437.744533 408.969007,427.119768 408.969007,427.119768 Z" id="Stroke-15" stroke="#3F2811"></path>
                        <path d="M413.61244,429.532839 C413.61244,429.532839 440.462529,423.398123 455.071203,412.170713 C469.680901,400.943302 477.328972,395.602088 481.460935,396.151962 C485.592898,396.701836 486.376529,394.705852 486.376529,394.705852 C486.376529,394.705852 490.082918,399.196816 493.055803,398.947318 C496.028689,398.69782 500.202596,398.69782 499.419988,403.188784 C498.636358,407.679748 491.072174,419.905151 491.072174,419.905151" id="Stroke-17" stroke="#2D1D0B"></path>
                        <path d="M494.87251,418.886294 C494.87251,418.886294 488.446355,416.711336 484.987087,420.245642 C478.312802,418.224211 474.111085,414.536379 464.967141,415.895727 C455.821258,417.256142 443.794752,417.924621 443.794752,417.924621" id="Stroke-19" stroke="#2D1D0B"></path>
                        <path d="M494.834518,371.487861 C494.834518,371.487861 495.987837,388.748354 485.585645,392.384053" id="Stroke-21" stroke="#2D1D0B"></path>
                        <path d="M402.003858,188.274228 C402.003858,188.274228 417.431013,169.491976 434.507886,192.709328" id="Stroke-23" stroke="#3F2811"></path>
                        <path d="M430.578777,204.318323 C430.578777,204.318323 433.111162,198.181611 431.818766,196.02473 C426.279359,182.729984 411.290723,190.106732 411.290723,190.106732" id="Stroke-25" stroke="#3F2811"></path>
                        <path d="M346.282667,0 C346.282667,0 372.891315,20.969909 402.837966,78.4039538 C406.745154,83.1181505 417.160939,101.976941 422.803076,111.406336 C428.445214,120.836734 429.747948,136.266835 431.917142,148.696083 C434.088366,161.126332 440.639576,194.41327 433.780945,206.640122" id="Stroke-27" stroke="#3F2811"></path>
                        <path d="M415.934156,227.536315 C415.934156,227.536315 438.467631,237.487488 450.759901,248.432507" id="Stroke-29" stroke="#2D1D0B"></path>
                        <path d="M496.156988,472.894364 C496.156988,472.894364 491.371823,486.062395 492.345946,494.61233 C493.319064,503.161257 501.578499,520.992797 499.030098,538.824337 C496.481696,556.655878 489.183314,580.349856 460.956873,592.318958 C432.731438,604.287051 401.553476,603.054819 337.79216,596.151897 C274.030844,589.248974 142.546377,556.906159 72.8900599,510.525383 C57.2528249,499.109322 5.77025717,443.500698 5.68434189e-14,392.384053" id="Stroke-31" stroke="#3F2811"></path>
                        <path d="M334.674085,208.961922 C334.674085,208.961922 327.978327,227.497214 290.561475,221.807453" id="Stroke-33" stroke="#3F2811"></path>
                        <path d="M349.457203,197.352926 C349.457203,197.352926 373.779745,234.231585 325.38722,255.397904" id="Stroke-35" stroke="#3F2811"></path>
                        <path d="M336.707989,132.34255 C336.707989,132.34255 338.669233,116.090293 332.352369,104.480961" id="Stroke-37" stroke="#3F2811"></path>
                        <path d="M330.030652,127.698952 C330.030652,127.698952 327.253682,105.1212 316.100354,97.5155634" id="Stroke-39" stroke="#3F2811"></path>
                        <path d="M327.708936,130.020751 C327.708936,130.020751 321.54794,100.492342 304.491773,97.5155634" id="Stroke-41" stroke="#3F2811"></path>
                        <path d="M318.422071,123.055354 C318.422071,123.055354 311.169522,99.6073785 288.239759,99.8390683" id="Stroke-43" stroke="#3F2811"></path>
                        <path d="M306.813489,118.411756 C306.813489,118.411756 297.151255,101.081788 265.022596,105.07979" id="Stroke-45" stroke="#3F2811"></path>
                        <path d="M297.526624,116.089956 C297.526624,116.089956 272.176537,100.417812 253.414014,116.089956" id="Stroke-47" stroke="#3F2811"></path>
                        <path d="M290.561475,116.093567 C290.561475,116.093567 254.160851,115.095837 234.840284,146.273345" id="Stroke-49" stroke="#3F2811"></path>
                        <path d="M269.666028,123.055354 C269.666028,123.055354 251.667141,127.956483 244.127149,136.986149" id="Stroke-51" stroke="#3F2811"></path>
                        <path d="M339.317518,134.664349 C339.317518,134.664349 343.696475,119.413436 343.96095,113.768157" id="Stroke-53" stroke="#3F2811"></path>
                        <path d="M278.952894,118.839851 C278.952894,118.839851 263.129451,111.536782 246.448865,120.733555" id="Stroke-55" stroke="#3F2811"></path>
                        <path d="M404.325574,143.951546 C404.325574,143.951546 406.899142,128.01347 408.969007,120.733555" id="Stroke-57" stroke="#3F2811"></path>
                        <path d="M411.290723,141.629747 C411.290723,141.629747 411.527598,125.820655 425.221021,118.411756" id="Stroke-59" stroke="#3F2811"></path>
                        <path d="M415.934156,141.629747 C415.934156,141.629747 416.708606,130.644642 427.542737,130.020751" id="Stroke-61" stroke="#2D1D0B"></path>
                        <path d="M420.696102,136.986149 C420.696102,136.986149 419.816172,129.431458 422.89709,125.377153" id="Stroke-63" stroke="#2D1D0B"></path>
                        <path d="M425.223726,141.629747 C425.223726,141.629747 424.951673,135.92306 429.864454,134.664349" id="Stroke-65" stroke="#2D1D0B"></path>
                    </g>
                    <ellipse id="Oval" fill="#FC3C2D" cx="432.837383" cy="874.909102" rx="2.46328438" ry="2.46453268"></ellipse>
                    <ellipse id="Oval-Copy-33" fill="#FC3C2D" cx="396.709212" cy="869.980037" rx="2.46328438" ry="2.46453268"></ellipse>
                    <ellipse id="Oval-Copy-29" fill="#FC3C2D" cx="441.048331" cy="865.050971" rx="2.46328438" ry="2.46453268"></ellipse>
                    <ellipse id="Oval-Copy-32" fill="#FC3C2D" cx="424.626435" cy="863.40795" rx="2.46328438" ry="2.46453268"></ellipse>
                    <ellipse id="Oval-Copy-24" fill="#FC3C2D" cx="406.56235" cy="881.481189" rx="2.46328438" ry="2.46453268"></ellipse>
                    <ellipse id="Oval-Copy-31" fill="#FC3C2D" cx="416.415487" cy="897.911407" rx="2.46328438" ry="2.46453268"></ellipse>
                    <ellipse id="Oval-Copy-25" fill="#FC3C2D" cx="383.571696" cy="897.911407" rx="2.46328438" ry="2.46453268"></ellipse>
                    <ellipse id="Oval-Copy-35" fill="#FC3C2D" cx="373.718558" cy="925.842778" rx="2.46328438" ry="2.46453268"></ellipse>
                    <ellipse id="Oval-Copy-27" fill="#FC3C2D" cx="344.159146" cy="915.984647" rx="2.46328438" ry="2.46453268"></ellipse>
                    <ellipse id="Oval-Copy-30" fill="#FC3C2D" cx="306.388785" cy="935.700908" rx="2.46328438" ry="2.46453268"></ellipse>
                    <ellipse id="Oval-Copy-28" fill="#FC3C2D" cx="360.581041" cy="935.700908" rx="2.46328438" ry="2.46453268"></ellipse>
                    <ellipse id="Oval-Copy-26" fill="#FC3C2D" cx="418.057677" cy="856.835862" rx="2.46328438" ry="2.46453268"></ellipse>
                    <ellipse id="Oval-Copy-37" fill="#FC3C2D" cx="462.396796" cy="881.481189" rx="2.46328438" ry="2.46453268"></ellipse>
                </g>
                <g id="Group-2-Copy" transform="translate(714.472897, 139.656852)">
                    <path d="M101.117077,145.407428 C143.072951,85.3676437 191.17986,55.3477514 245.437804,55.3477514 C326.82472,55.3477514 442.610425,147.005637 478.456415,0" id="Path-4" stroke="#3F2811" stroke-width="1.5"></path>
                    <g id="Group-123" transform="translate(0.000000, 142.942896)" stroke-width="1.5">
                        <path d="M141.716868,214.414343 C141.716868,214.414343 167.412891,250.586527 158.384889,272.42594 C149.356887,294.265352 141.022877,315.422753 138.245383,324.976932 C135.46636,334.531112 97.9648414,380.257476 98.6603613,405.509954 C99.3543526,430.762432 111.85384,460.790497 120.189379,466.933114 C128.521861,473.07573 143.106379,480.583873 143.106379,480.583873" id="Stroke-1" stroke="#3F2811"></path>
                        <path d="M221.964316,354.892706 C221.964316,354.892706 267.784579,370.125957 282.820561,409.299366 C297.855027,448.472774 257.045242,446.441163 240.578561,448.544948" id="Stroke-3" stroke="#3F2811"></path>
                        <path d="M118.380969,423.899621 C118.380969,423.899621 128.391235,452.835101 137.411474,455.340297 C146.430096,457.843921 161.893595,451.992702 160.175609,446.988597 C158.457622,441.986064 125.121883,424.591143 118.380969,423.899621 Z" id="Stroke-5" stroke="#3F2811"></path>
                        <path d="M207.364784,428.125718 C211.418191,430.514479 216.086713,431.478561 220.728031,431.264144 C230.587997,430.80831 243.951243,429.010385 241.369879,422.500058 C237.357278,412.377999 203.649916,401.835048 187.598,409.004509 C171.546084,416.173969 163.921386,422.633473 176.361205,426.149907 C188.801025,429.66793 195.222698,424.74111 202.043364,426.149907 C204.317927,426.620036 206.057477,427.355406 207.364784,428.125718 Z" id="Stroke-7" stroke="#3F2811"></path>
                        <path d="M293.486151,271.098595 C293.486151,271.098595 307.358501,261.035671 322.388273,246.277258 C337.419564,231.518845 381.887638,200.659754 446.394902,234.872069 C423.931507,250.302428 413.827612,265.732787 379.381411,266.403106 C344.936728,267.073425 337.326909,263.048256 293.486151,271.098595 Z" id="Stroke-9" stroke="#3F2811"></path>
                        <path d="M291.019881,246.453268 C291.019881,246.453268 307.574297,219.720488 325.547664,202.09168" id="Stroke-11" stroke="#3F2811"></path>
                        <path d="M288.553611,258.775932 C288.553611,258.775932 312.349785,225.547232 323.081393,216.878876" id="Stroke-13" stroke="#3F2811"></path>
                        <path d="M373.608243,224.272474 C373.608243,224.272474 364.501653,242.413714 368.48026,252.518991 C372.458867,262.624267 379.805607,268.634062 379.805607,268.634062" id="Stroke-15" stroke="#3F2811"></path>
                        <path d="M424.682895,226.737007 C424.682895,226.737007 430.14041,235.050454 428.965216,241.555693 C427.790022,248.060932 421.732201,258.775932 421.732201,258.775932" id="Stroke-17" stroke="#3F2811"></path>
                        <path d="M369.940527,191.483926 C369.940527,191.483926 387.772771,182.080181 416.839219,191.483926 C445.904116,200.887671 466.125064,207.020745 466.125064,207.020745" id="Stroke-19" stroke="#3F2811"></path>
                        <path d="M369.940527,200.602969 C369.940527,200.602969 378.117267,190.756846 400.855434,196.493178 C423.5936,202.229511 462.334594,215.674696 466.125064,216.878876" id="Stroke-21" stroke="#3F2811"></path>
                        <path d="M264.302314,266.16953 C264.302314,266.16953 252.278438,234.495646 264.302314,206.292002 C276.32619,178.088358 339.655626,112.391295 441.462362,159.43317" id="Stroke-23" stroke="#3F2811"></path>
                        <path d="M143.04367,306.380293 C143.04367,306.380293 89.3378213,290.723877 56.9121652,311.273486 C24.484987,331.823095 36.8375454,352.353197 36.8375454,352.353197 C36.8375454,352.353197 63.4743192,354.273862 91.6545919,338.672965 C119.834865,323.070567 139.513716,316.352743 139.513716,316.352743" id="Stroke-25" stroke="#3F2811"></path>
                        <path d="M150.442481,298.208455 C150.442481,298.208455 113.580512,256.239686 71.1680042,268.370507 C52.0635424,273.786259 39.4603229,285.119283 39.4603229,285.119283" id="Stroke-27" stroke="#3F2811"></path>
                        <path d="M145.509941,300.672987 C145.509941,300.672987 115.056594,279.28353 96.184537,278.492193" id="Stroke-29" stroke="#3F2811"></path>
                        <path d="M39.4603229,263.704997 C39.4603229,263.704997 25.308357,285.297817 26.4546316,301.64528 C26.3897765,310.181689 22.4984761,326.194965 26.3897765,335.176445" id="Stroke-31" stroke="#2D1D0B"></path>
                        <path d="M36.9940527,366.890365 C36.9940527,366.890365 38.950046,379.538033 49.5121013,379.538033 C60.0756992,379.538033 88.9034617,374.005165 120.847239,337.640977" id="Stroke-33" stroke="#3F2811"></path>
                        <path d="M77.4642436,303.13752 C77.4642436,303.13752 67.9083318,312.036458 73.0322851,325.704259 C78.1576891,339.373694 86.3194562,345.034575 86.3194562,345.034575" id="Stroke-35" stroke="#3F2811"></path>
                        <path d="M128.246049,303.13752 C128.246049,303.13752 132.753075,310.969399 129.581588,322.853781" id="Stroke-37" stroke="#3F2811"></path>
                        <path d="M122.123115,628.455834 C122.123115,628.455834 109.9357,599.21349 119.712149,567.83041 C129.488599,536.44887 139.377824,492.940091 177.517407,510.772365 C185.286751,512.911561 183.874004,505.779882 189.52499,502.926595 C195.174452,500.073308 255.916455,475.823447 347.027174,565.691215 L352.676636,572.824432 C352.676636,572.824432 304.245491,567.83041 287.143182,569.971145 C270.040872,572.11188 220.17717,569.257054 208.73499,575.67618 C197.29281,582.096845 163.391466,582.809398 152.091019,589.228524 C140.790571,595.64765 122.123115,628.455834 122.123115,628.455834 Z" id="Stroke-39" stroke="#3F2811"></path>
                        <path d="M278.68853,568.123146 C278.68853,568.123146 249.942908,548.63656 220.691392,552.58293 C191.439876,556.5293 177.571453,581.629713 177.571453,581.629713" id="Stroke-41" stroke="#3F2811"></path>
                        <path d="M344.226357,574.236115 C344.226357,574.236115 352.141268,580.603634 344.226357,585.885899 C336.311445,591.166679 273.633047,613.600715 251.926842,623.883167 C230.222142,634.165619 175.873884,651.302544 160.674425,650.616652 C145.473462,649.932244 120.538707,648.49662 120.850128,628.305839" id="Stroke-43" stroke="#3F2811"></path>
                        <path d="M234.295667,172.517288 C234.295667,172.517288 226.207381,143.33599 226.944321,125.691167" id="Stroke-45" stroke="#3F2811"></path>
                        <path d="M240.707969,162.659157 C240.707969,162.659157 234.788921,125.978211 246.627018,110.903971" id="Stroke-47" stroke="#3F2811"></path>
                        <path d="M258.958369,147.871961 C258.958369,147.871961 260.115458,139.160999 271.28972,118.297569" id="Stroke-49" stroke="#3F2811"></path>
                        <path d="M251.559558,155.265559 C251.559558,155.265559 252.467729,129.388774 258.958369,103.510373" id="Stroke-51" stroke="#3F2811"></path>
                        <path d="M266.244279,150.336494 C266.244279,150.336494 261.203223,128.606227 266.244279,108.439438" id="Stroke-53" stroke="#3F2811"></path>
                        <path d="M274.067541,147.871961 C274.067541,147.871961 271.491388,113.26134 281.1548,96.1167746" id="Stroke-55" stroke="#3F2811"></path>
                        <path d="M281.1548,135.549298 C281.1548,135.549298 285.618582,102.693233 295.952421,88.7231766" id="Stroke-57" stroke="#3F2811"></path>
                        <path d="M291.019881,138.01383 C291.019881,138.01383 296.545527,105.899058 310.750042,86.2586439" id="Stroke-59" stroke="#3F2811"></path>
                        <path d="M300.884962,133.084765 C300.884962,133.084765 304.080779,96.8141233 325.547664,81.3295785" id="Stroke-61" stroke="#3F2811"></path>
                        <path d="M310.750042,128.155699 C310.750042,128.155699 335.209107,95.0655398 365.007986,96.142504" id="Stroke-63" stroke="#3F2811"></path>
                        <path d="M315.86871,128.155699 C315.86871,128.155699 312.157459,95.6697209 337.879014,81.3295785" id="Stroke-65" stroke="#3F2811"></path>
                        <path d="M330.539038,120.762101 C330.539038,120.762101 328.221536,90.5261768 352.676636,76.4005131" id="Stroke-67" stroke="#3F2811"></path>
                        <path d="M320.615123,120.762101 C320.615123,120.762101 329.789365,86.8397872 365.007986,78.8650458" id="Stroke-69" stroke="#3F2811"></path>
                        <path d="M342.811555,113.368503 C342.811555,113.368503 347.17523,93.2845851 377.339337,76.4005131" id="Stroke-71" stroke="#3F2811"></path>
                        <path d="M355.142906,108.439438 C355.142906,108.439438 373.453582,100.148468 389.670688,98.5813073" id="Stroke-73" stroke="#3F2811"></path>
                        <path d="M355.142906,110.903971 C355.142906,110.903971 373.205708,86.2586439 404.468309,86.2586439" id="Stroke-75" stroke="#3F2811"></path>
                        <path d="M335.412744,113.368503 C335.412744,113.368503 353.74215,81.9890736 392.136958,78.8650458" id="Stroke-77" stroke="#3F2811"></path>
                        <path d="M379.805607,96.1167746 C379.805607,96.1167746 401.488061,84.8120828 424.198471,90.1596735" id="Stroke-79" stroke="#3F2811"></path>
                        <path d="M402.002039,77.8613038 C402.002039,77.8613038 424.587773,70.5278857 446.394902,88.7231766" id="Stroke-81" stroke="#3F2811"></path>
                        <path d="M409.40085,96.8355602 C409.40085,96.8355602 432.367469,92.8842082 453.793713,103.510373" id="Stroke-83" stroke="#3F2811"></path>
                        <path d="M488.321495,110.903971 C478.529191,104.386437 446.394902,96.1167746 446.394902,96.1167746" id="Stroke-85" stroke="#3F2811"></path>
                        <path d="M461.192523,108.439438 C461.192523,108.439438 484.867852,121.536502 498.186576,133.084765" id="Stroke-87" stroke="#3F2811"></path>
                        <path d="M411.86712,83.7941112 C411.86712,83.7941112 451.410744,91.7059262 468.591334,108.439438" id="Stroke-89" stroke="#3F2811"></path>
                        <path d="M475.990144,123.226634 C475.990144,123.226634 505.716339,139.790504 512.984197,152.801026" id="Stroke-91" stroke="#3F2811"></path>
                        <path d="M125.779779,197.162615 C125.779779,197.162615 105.272516,163.444683 88.7857264,162.659157" id="Stroke-93" stroke="#3F2811"></path>
                        <path d="M118.380969,192.233549 C118.380969,192.233549 95.9751716,169.870115 71.5218352,167.588222" id="Stroke-95" stroke="#3F2811"></path>
                        <path d="M101.117077,194.698082 C101.117077,194.698082 94.763416,170.936332 44.3928632,175.584575" id="Stroke-97" stroke="#3F2811"></path>
                        <path d="M108.515888,202.09168 C108.515888,202.09168 81.8685559,174.807758 36.9940527,180.760294" id="Stroke-99" stroke="#3F2811"></path>
                        <path d="M91.2519966,202.09168 C91.2519966,202.09168 67.2640516,185.717815 34.5277825,190.719003" id="Stroke-101" stroke="#3F2811"></path>
                        <path d="M86.3194562,204.556213 C86.3194562,204.556213 53.8920079,188.597732 19.7301614,197.289558" id="Stroke-103" stroke="#3F2811"></path>
                        <path d="M73.9881054,207.020745 C73.9881054,207.020745 46.7432847,191.677378 17.2638912,205.196835" id="Stroke-105" stroke="#3F2811"></path>
                        <path d="M61.6567545,212.122409 C61.6567545,212.122409 26.3651091,210.177753 9.86508071,219.343409" id="Stroke-107" stroke="#3F2811"></path>
                        <path d="M54.2579439,214.414343 C54.2579439,214.414343 35.6414332,201.602108 9.86508071,209.709431" id="Stroke-109" stroke="#2D1D0B"></path>
                        <path d="M39.4603229,214.414343 C39.4603229,214.414343 6.7967295,215.698431 2.46627018,234.130605" id="Stroke-111" stroke="#2D1D0B"></path>
                        <path d="M36.9940527,224.272474 C36.9940527,224.272474 0.944121428,226.598521 0,243.988736" id="Stroke-113" stroke="#2D1D0B"></path>
                        <path d="M182.503993,271.098595 C182.503993,271.098595 158.899094,311.820358 160.373899,335.176445" id="Stroke-115" stroke="#3F2811"></path>
                        <path d="M152.908751,379.538033 C152.908751,379.538033 147.359643,391.211512 152.908751,409.112425" id="Stroke-117" stroke="#3F2811"></path>
                        <path d="M150.442481,280.956726 C150.442481,280.956726 137.674229,226.255293 93.7182668,229.326161" id="Stroke-119" stroke="#3F2811"></path>
                        <path d="M102.886032,0 C102.886032,0 54.7223923,71.5843088 48.6678191,117.959757 C45.9760599,136.294025 11.0012864,221.368243 8.26881149,242.30588 C5.5378446,263.242001 9.5219498,281.047104 16.2324979,302.577588 C22.94003,324.106555 37.2086157,353.691259 26.6692852,395.960753 C16.1314627,438.228731 9.2113042,464.8583 26.6692852,518.875554 C44.1272662,572.894324 97.8523668,670.277307 106.931965,692.341504 C116.01307,714.405701 154.412485,789.726003 170.39867,799.616379 C186.383346,809.508272 197.073476,829.287508 283.665182,810.267904 C370.256888,791.248299 464.840933,737.231046 506.458395,718.971073 C548.075857,700.7111 571.532616,681.691496 599.529928,669.516159 C627.527239,657.343855 650.226988,614.737757 654.76754,588.109704 C659.306585,561.480135 675.199274,492.247501 678.224299,473.987528" id="Stroke-121" stroke="#3F2811"></path>
                    </g>
                    <ellipse id="Oval" fill="#FC3C2D" cx="184.970263" cy="470.725742" rx="2.46627018" ry="2.46453268"></ellipse>
                    <ellipse id="Oval-Copy-14" fill="#FC3C2D" cx="172.638912" cy="495.371069" rx="2.46627018" ry="2.46453268"></ellipse>
                    <ellipse id="Oval-Copy-13" fill="#FC3C2D" cx="177.571453" cy="451.009481" rx="2.46627018" ry="2.46453268"></ellipse>
                    <ellipse id="Oval-Copy-8" fill="#FC3C2D" cx="204.700425" cy="485.512938" rx="2.46627018" ry="2.46453268"></ellipse>
                    <ellipse id="Oval-Copy-21" fill="#FC3C2D" cx="138.11113" cy="483.048406" rx="2.46627018" ry="2.46453268"></ellipse>
                    <ellipse id="Oval-Copy-18" fill="#FC3C2D" cx="81.3869159" cy="552.055321" rx="2.46627018" ry="2.46453268"></ellipse>
                    <ellipse id="Oval-Copy-6" fill="#FC3C2D" cx="152.908751" cy="478.11934" rx="2.46627018" ry="2.46453268"></ellipse>
                    <ellipse id="Oval-Copy-12" fill="#FC3C2D" cx="160.307562" cy="451.009481" rx="2.46627018" ry="2.46453268"></ellipse>
                    <ellipse id="Oval-Copy-3" fill="#FC3C2D" cx="217.031776" cy="460.867612" rx="2.46627018" ry="2.46453268"></ellipse>
                    <ellipse id="Oval-Copy-7" fill="#FC3C2D" cx="140.5774" cy="497.835602" rx="2.46627018" ry="2.46453268"></ellipse>
                    <ellipse id="Oval-Copy-4" fill="#FC3C2D" cx="256.492099" cy="475.654808" rx="2.46627018" ry="2.46453268"></ellipse>
                    <ellipse id="Oval-Copy-17" fill="#FC3C2D" cx="96.184537" cy="522.480929" rx="2.46627018" ry="2.46453268"></ellipse>
                    <ellipse id="Oval-Copy-15" fill="#FC3C2D" cx="320.615123" cy="475.654808" rx="2.46627018" ry="2.46453268"></ellipse>
                    <ellipse id="Oval-Copy-11" fill="#FC3C2D" cx="150.442481" cy="460.867612" rx="2.46627018" ry="2.46453268"></ellipse>
                    <ellipse id="Oval-Copy-10" fill="#FC3C2D" cx="241.694477" cy="453.474014" rx="2.46627018" ry="2.46453268"></ellipse>
                    <ellipse id="Oval-Copy-9" fill="#FC3C2D" cx="268.823449" cy="470.725742" rx="2.46627018" ry="2.46453268"></ellipse>
                    <ellipse id="Oval-Copy-20" fill="#FC3C2D" cx="197.301614" cy="463.332144" rx="2.46627018" ry="2.46453268"></ellipse>
                    <ellipse id="Oval-Copy-19" fill="#FC3C2D" cx="293.486151" cy="460.867612" rx="2.46627018" ry="2.46453268"></ellipse>
                    <ellipse id="Oval-Copy-16" fill="#FC3C2D" cx="288.553611" cy="495.371069" rx="2.46627018" ry="2.46453268"></ellipse>
                    <ellipse id="Oval-Copy-22" fill="#FC3C2D" cx="365.007986" cy="500.300134" rx="2.46627018" ry="2.46453268"></ellipse>
                    <ellipse id="Oval-Copy-5" fill="#FC3C2D" cx="187.436534" cy="441.15135" rx="2.46627018" ry="2.46453268"></ellipse>
                </g>
                <path d="M730.902832,257.979008 C611.976443,382.159162 505.012308,430.8923 410.010426,404.178422 C267.507604,364.107605 350.918059,240.944986 504.989359,340.300912 C659.060659,439.656838 582.05479,507.540272 505.042333,549.421791 C428.029877,591.303311 544.320494,715.519144 731.011074,685.277159" id="Path-6-Copy" stroke="#3F2811" stroke-width="1.5" transform="translate(533.855036, 473.974411) rotate(-135.000000) translate(-533.855036, -473.974411) "></path>
                <path d="M241.522296,487.978609 C132.619582,492.359242 52.1121495,551.23381 0,664.602313" id="Path-22" stroke="#3F2811" stroke-width="1.5"></path>
            </g>
            <path d="" id="Path-5-Copy" stroke="#979797"></path>
        </g>
    </g>
</svg>