<?xml version="1.0" encoding="UTF-8"?>
<svg width="393px" height="531px" viewBox="0 0 393 531" version="1.1" xmlns="http://www.w3.org/2000/svg" xmlns:xlink="http://www.w3.org/1999/xlink">
    <!-- Generator: Sketch 55.2 (78181) - https://sketchapp.com -->
    <title>Group 8 Copy</title>
    <desc>Created with Sketch.</desc>
    <g id="Page-1" stroke="none" stroke-width="1" fill="none" fill-rule="evenodd">
        <g id="Group-8-Copy">
            <rect id="Rectangle" fill="#CDE0CE" x="0" y="49.5" width="393" height="481.5"></rect>
            <g id="Group-79" transform="translate(224.250000, 251.250000) scale(-1, 1) translate(-224.250000, -251.250000) translate(73.500000, 0.000000)" stroke="#3F2811" stroke-width="1.5">
                <path d="M139.44364,208.5 C139.44364,208.5 140.923742,238.263491 128.714057,251.124218 C116.503048,263.984946 113.913697,263.984946 109.47339,267.291708 C105.033746,270.59847 99.4835275,272.435999 95.4134118,279.050181 C91.3432961,285.664363 90.6035761,288.971126 86.1632693,293.013162 C81.7236247,297.055199 80.2428602,304.404656 81.3534335,308.813672 C82.4633447,313.223346 86.9036515,316.163129 91.7134873,318" id="Stroke-1"></path>
                <path d="M157.848026,306 C157.848026,306 163.814967,319.791965 157.848026,327.180397 C151.881085,334.568154 149.643823,338.508426 142.930673,337.277133 C136.218205,336.046515 130.5,332.844749 130.5,332.844749" id="Stroke-3"></path>
                <path d="M103.5,309.219909 C103.5,309.219909 100.327388,297.699704 96.6270155,297.059659 C92.9252996,296.419614 86.0523151,301.059637 87.1091808,304.739593 C88.166718,308.420158 90.1058719,310.019661 91.8684339,310.5" id="Stroke-5"></path>
                <path d="M130.859011,323.825569 C131.411832,324.772838 133.899191,326.66804 136.801335,324.502379 C139.70348,322.336056 136.801335,316.514559 133.761155,312.724156 C130.720975,308.93309 122.7054,305.684267 119.665219,308.662631 C116.625039,311.640331 120.49479,314.213006 120.49479,314.213006" id="Stroke-7"></path>
                <path d="M262.5,294 C240.90636,270.685246 231.216889,268.695496 220.005714,265.444561 C208.793228,262.194299 190.5,265.444561 190.5,265.444561 C190.5,265.444561 194.259349,270.401092 200.349443,272.959823 C206.440192,275.519228 211.146263,278.077959 215.714653,281.489825 C220.281732,284.901018 231.254259,290.68375 243.536068,288.881864 L255.818533,287.079979" id="Stroke-9"></path>
                <path d="M190.5,255.680009 C190.5,255.680009 203.380508,238.606907 222.810889,240.091496 C242.241934,241.576086 257.635031,247.020014 270,273" id="Stroke-11"></path>
                <path d="M234,250.5 C234,250.5 251.616679,255.849303 267,277.5" id="Stroke-13"></path>
                <path d="M240,247.5 C240,247.5 253.091373,249.310431 264,270" id="Stroke-15"></path>
                <path d="M221.40294,267 C221.40294,267 216.989295,270.581205 217.549077,275.700301 C218.109481,280.818722 219.478183,285.356041 222,286.5" id="Stroke-17"></path>
                <path d="M246,279 C246,279 243.416867,283.918034 241.125265,285.403812 C238.834298,286.88959 237.508116,287.775976 232.5,289.5" id="Stroke-19"></path>
                <path d="M124.5,216 C124.5,216 131.748044,227.497517 130.311571,235.306321 C128.874447,243.115801 126.582853,247.5 126.582853,247.5" id="Stroke-21"></path>
                <path d="M124.5,226.5 C124.5,226.5 104.835472,199.807802 73.5,211.431921" id="Stroke-23"></path>
                <path d="M124.5,241.43455 C124.5,241.43455 108.514017,225.253654 94.1265018,225.035215 C79.7389866,224.816093 72,225.691215 72,225.691215 C72,225.691215 73.2550061,235.836358 81.4125457,239.510235 C89.5694324,243.184113 97.0994689,244.932993 105.048059,245.151432 C112.995995,245.370554 115.296404,248.086711 118.853126,247.384292 C122.408541,246.682555 123.872497,247.776117 124.5,241.43455 Z" id="Stroke-25"></path>
                <path d="M91.5,225 C91.5,225 88.1370899,229.071707 88.5322905,233.11188 C88.9281086,237.152683 89.7197448,239.583977 91.5,241.5" id="Stroke-27"></path>
                <path d="M115.208236,232.5 C115.208236,232.5 116.23051,236.033547 114.447999,239.1206 C112.665487,242.208304 111.029583,243.771031 106.5,244.5" id="Stroke-29"></path>
                <path d="M43.5,368.559178 C43.5,368.559178 47.7258689,370.537431 52.7958531,366.297464 C57.8664988,362.057497 64.9078495,364.318547 64.9078495,365.166939 C64.9078495,366.014667 68.8512441,367.993584 74.4855154,368.841975 C80.1184637,369.689703 101.526975,376.756316 106.033333,379.300163 C110.541015,381.844675 117.970685,383.257997 117.970685,383.257997 C117.970685,383.257997 122.37186,384.953453 129.439011,390.041148 C136.506823,395.129507 133.920893,395.412305 144,400.5 C136.051688,376.756316 118.145991,353.294765 112.794194,347.358678 C107.442397,341.42259 96.1751777,339.726471 96.1751777,339.726471 C96.1751777,339.726471 90.9140107,337.082383 80.3056773,337.557031 C69.697344,338.031015 52.5140403,348.489867 49.4154226,356.687004 C46.3174664,364.884141 43.5,368.559178 43.5,368.559178 Z" id="Stroke-31"></path>
                <path d="M48,367.5 C48,367.5 50.4905444,381.705946 60.6887864,386.380506 C70.8876877,391.053727 91.4226451,399.588686 103.550944,400.402177 C115.680561,401.214328 130.189284,396.695229 135.676791,396.947184 C141.164297,397.198468 139.132034,395.937356 139.132034,395.937356" id="Stroke-33"></path>
                <path d="M118.5,382.5 C118.5,382.5 114.278375,373.320757 111.162226,372.219248 C108.046078,371.118433 100.924949,363.56612 98.6995961,362.622167 C96.4742433,361.678215 92.9130242,360.419843 89.5003802,360.419843 C86.0877362,360.419843 80.7468895,359.475196 79.8567484,360.419843 C78.9666072,361.363795 74.3673266,361.835771 72.7349648,361.835771 C71.1032576,361.835771 66,363.58486 66,363.58486" id="Stroke-35"></path>
                <path d="M207,222 C207,222 215.240892,204.221954 225,204" id="Stroke-37"></path>
                <path d="M214.5,222 C214.5,222 224.571837,204.026346 243,209.557026" id="Stroke-39"></path>
                <path d="M202.5,222 C202.5,222 205.875,213.000238 202.5,205.5" id="Stroke-41"></path>
                <path d="M222,222 C222,222 232.091209,210.051608 258,216.317062" id="Stroke-43"></path>
                <path d="M228,222 C228,222 250.153744,211.875 276,222" id="Stroke-45"></path>
                <path d="M232.5,224.312944 C232.5,224.312944 269.066001,215.423205 286.5,232.5" id="Stroke-47"></path>
                <path d="M240,227.174634 C240,227.174634 264.72411,216.763852 289.5,241.5" id="Stroke-49"></path>
                <path d="M259.5,231.467359 C259.5,231.467359 277.57227,227.71047 286.5,241.5" id="Stroke-51"></path>
                <path d="M289.5,241.5 C289.5,241.5 297.428875,246.817813 301.5,261" id="Stroke-53"></path>
                <path d="M288,247.5 C288,247.5 290.647098,248.2091 295.5,255" id="Stroke-55"></path>
                <path d="M133.5,201 C133.5,201 135.483802,194.028312 134.888602,186" id="Stroke-57"></path>
                <path d="M130.5,195 C130.5,195 130.486343,184.156406 124.5,177" id="Stroke-59"></path>
                <path d="M124.496784,193.5 C124.496784,193.5 124.982981,179.737307 114,169.5" id="Stroke-61"></path>
                <path d="M117,186 C117,186 115.961298,176.407438 103.5,168" id="Stroke-63"></path>
                <path d="M112.5,183 C112.5,183 107.211106,169.041919 91.5,168" id="Stroke-65"></path>
                <path d="M106.5,180 C106.5,180 101.785634,169.377016 82.5,166.5" id="Stroke-67"></path>
                <path d="M99,178.5 C99,178.5 86.9524517,167.035556 72,172.455088" id="Stroke-69"></path>
                <path d="M93,177 C93,177 79.3998295,170.25 67.5,177" id="Stroke-71"></path>
                <path d="M82.5,175.833229 C82.5,175.833229 73.5,173.750235 64.5,180" id="Stroke-73"></path>
                <path d="M70.5,180 C70.5,180 64.4582463,181.000267 63,184.5" id="Stroke-75"></path>
                <path d="M268.450077,453.963318 C268.450077,453.963318 271.332404,471.170993 233.294946,493.89394 C195.257489,516.616888 56.2262115,478.992182 30.1841251,462.828259 C4.14203874,446.663012 3.10017019,432.583283 0.496820956,409.656483 C-2.10785044,386.729022 6.22577586,358.537795 9.35072045,329.857454 C12.475665,301.177775 17.6843468,265.719334 32.7881354,247.512252 C47.8925852,229.304508 52.5803326,220.353525 59.3511561,198.452607 C66.1219796,176.551689 75.4974744,151.000618 86.1634055,140.050159 C96.8299976,129.0997 109.724443,109.805844 109.724443,109.805844 C109.724443,109.805844 128.480134,85.3141686 138.803654,0.535198918" id="Stroke-77"></path>
            </g>
        </g>
    </g>
</svg>