<?xml version="1.0" encoding="UTF-8"?>
<svg width="745px" height="687px" viewBox="0 0 745 687" version="1.1" xmlns="http://www.w3.org/2000/svg" xmlns:xlink="http://www.w3.org/1999/xlink">
    <!-- Generator: Sketch 55.2 (78181) - https://sketchapp.com -->
    <title>Group 2</title>
    <desc>Created with Sketch.</desc>
    <g id="Page-1" stroke="none" stroke-width="1" fill="none" fill-rule="evenodd">
        <g id="Desktop" transform="translate(-279.000000, -1390.000000)">
            <g id="cancer" transform="translate(42.000000, 1236.000000)">
                <g id="Group-2" transform="translate(237.000000, 155.000000)">
                    <rect id="Rectangle-Copy-7" fill="#CDE0CE" x="0" y="40" width="745" height="607"></rect>
                    <g id="Group-79-Copy-2" transform="translate(465.500000, 342.000000) scale(-1, 1) translate(-465.500000, -342.000000) translate(232.000000, 0.000000)" stroke="#3F2811" stroke-width="2.25">
                        <path d="M215.913292,233 C215.913292,233 218.190373,278.664534 199.406242,298.396061 C180.620074,318.127588 176.636457,318.127588 169.805216,323.200977 C162.974993,328.274365 154.436196,331.093587 148.17448,341.241374 C141.912763,351.38916 140.774732,356.462549 133.943491,362.66403 C127.113269,368.865511 124.835169,380.14139 126.543744,386.905908 C128.2513,393.671436 135.082541,398.181787 142.482288,401" id="Stroke-1"></path>
                        <path d="M245.845241,382 C245.845241,382 255.193449,403.454168 245.845241,414.947284 C236.497033,426.439351 232.991989,432.568663 222.474721,430.653318 C211.958521,428.739024 203,423.758499 203,423.758499" id="Stroke-3"></path>
                        <path d="M161,388.10357 C161,388.10357 156.000733,371.036599 150.169843,370.088384 C144.336836,369.140169 133.506678,376.014277 135.172042,381.466063 C136.838465,386.918752 139.894101,389.288387 142.671472,390" id="Stroke-5"></path>
                        <path d="M202.013863,410.488353 C202.864357,411.909257 206.691063,414.752059 211.155901,411.503568 C215.620738,408.254083 211.155901,399.521838 206.4787,393.836233 C201.801499,388.149634 189.469846,383.276401 184.792645,387.743946 C180.115444,392.210496 186.068907,396.069509 186.068907,396.069509" id="Stroke-7"></path>
                        <path d="M406,363 C372.409893,326.473552 357.337382,323.356277 339.897777,318.263145 C322.456132,313.171068 294,318.263145 294,318.263145 C294,318.263145 299.847877,326.028378 309.321356,330.037057 C318.795855,334.04679 326.11641,338.055469 333.222794,343.400726 C340.327138,348.744927 357.395514,357.804541 376.500551,354.981588 L395.606607,352.158634" id="Stroke-9"></path>
                        <path d="M294,305.232742 C294,305.232742 313.928333,278.847038 343.990432,281.141404 C374.053558,283.435769 397.869293,291.849112 417,332" id="Stroke-11"></path>
                        <path d="M362,297 C362,297 389.225776,305.321139 413,339" id="Stroke-13"></path>
                        <path d="M371,292 C371,292 391.728008,294.816226 409,327" id="Stroke-15"></path>
                        <path d="M343.07124,323 C343.07124,323 336.20557,328.509546 337.076342,336.385079 C337.948081,344.259572 340.077174,351.240064 344,353" id="Stroke-17"></path>
                        <path d="M382,340 C382,340 378.173136,347.494148 374.77817,349.75819 C371.384145,352.022232 369.419431,353.372916 362,356" id="Stroke-19"></path>
                        <path d="M193,243 C193,243 203.872066,260.885026 201.717356,273.032054 C199.561671,285.180135 196.12428,292 196.12428,292" id="Stroke-21"></path>
                        <path d="M193,260 C193,260 162.924839,219.961703 115,237.397882" id="Stroke-23"></path>
                        <path d="M193,282.564855 C193,282.564855 168.335912,257.394573 146.138031,257.054778 C123.940151,256.713922 112,258.075224 112,258.075224 C112,258.075224 113.936295,273.856558 126.522213,279.571477 C139.107124,285.286397 150.724895,288.006877 162.988433,288.346672 C175.250964,288.687528 178.800167,292.912661 184.287679,291.82001 C189.773177,290.72842 192.031852,292.429516 193,282.564855 Z" id="Stroke-25"></path>
                        <path d="M142,257 C142,257 137.51612,263.416023 138.043054,269.782356 C138.570811,276.149683 139.626326,279.980812 142,283" id="Stroke-27"></path>
                        <path d="M178.578563,269 C178.578563,269 180.055181,274.30032 177.480442,278.9309 C174.905703,283.562456 172.542731,285.906547 166,287" id="Stroke-29"></path>
                        <path d="M68,478.821274 C68,478.821274 74.5175092,481.867156 82.3368878,475.338952 C90.1572867,468.810749 101.017081,472.292048 101.017081,473.598302 C101.017081,474.903534 107.098934,477.950438 115.788606,479.256692 C124.476237,480.561924 157.494339,491.442264 164.444444,495.358981 C171.39659,499.276721 182.855286,501.452789 182.855286,501.452789 C182.855286,501.452789 189.643167,504.063253 200.542753,511.896689 C211.443358,519.731146 207.455108,520.166564 223,528 C210.74141,491.442264 183.125658,455.318923 174.871643,446.179234 C166.617628,437.039544 149.240324,434.428058 149.240324,434.428058 C149.240324,434.428058 141.126086,430.357002 124.764975,431.087809 C108.403864,431.817594 81.9022512,447.920906 77.1232886,460.541895 C72.3453462,473.162884 68,478.821274 68,478.821274 Z" id="Stroke-31"></path>
                        <path d="M74,478 C74,478 77.8651072,499.954644 93.6918871,507.178964 C109.51969,514.401214 141.388149,527.591605 160.210208,528.848819 C179.034313,530.103962 201.550584,523.1199 210.066713,523.509284 C218.582843,523.897633 215.428948,521.94864 215.428948,521.94864" id="Stroke-33"></path>
                        <path d="M184,502 C184,502 177.486635,487.721178 172.678864,486.007719 C167.871092,484.29534 156.884207,472.547297 153.450805,471.078927 C150.017404,469.610556 144.522952,467.653089 139.25773,467.653089 C133.992507,467.653089 125.752344,466.183639 124.378983,467.653089 C123.005623,469.121459 115.90959,469.855645 113.391089,469.855645 C110.873597,469.855645 103,472.576448 103,472.576448" id="Stroke-35"></path>
                        <path d="M321,251 C321,251 333.361338,224.332931 348,224" id="Stroke-37"></path>
                        <path d="M332,251 C332,251 347.902901,224.372364 377,232.565964" id="Stroke-39"></path>
                        <path d="M314,253 C314,253 320.75,238.818557 314,227" id="Stroke-41"></path>
                        <path d="M344,253 C344,253 359.417125,235.475691 399,244.665024" id="Stroke-43"></path>
                        <path d="M352,253 C352,253 386.153689,237.25 426,253" id="Stroke-45"></path>
                        <path d="M360,256.524487 C360,256.524487 416.880447,242.978217 444,269" id="Stroke-47"></path>
                        <path d="M372,260.426697 C372,260.426697 410.459727,244.021828 449,283" id="Stroke-49"></path>
                        <path d="M402,266.712167 C402,266.712167 430.112419,260.987383 444,282" id="Stroke-51"></path>
                        <path d="M449,282 C449,282 460.893313,290.18125 467,312" id="Stroke-53"></path>
                        <path d="M447,292 C447,292 450.882411,293.040014 458,303" id="Stroke-55"></path>
                        <path d="M206,220 C206,220 209.967604,209.310079 208.777203,197" id="Stroke-57"></path>
                        <path d="M202,211 C202,211 201.979514,194.73461 193,184" id="Stroke-59"></path>
                        <path d="M192.995099,208 C192.995099,208 193.735971,186.20907 177,170" id="Stroke-61"></path>
                        <path d="M181,198 C181,198 179.461182,183.611157 161,171" id="Stroke-63"></path>
                        <path d="M174,193 C174,193 165.940733,171.597609 142,170" id="Stroke-65"></path>
                        <path d="M166,188 C166,188 158.535587,172.262247 128,168" id="Stroke-67"></path>
                        <path d="M153,185 C153,185 134.259369,168.185482 111,176.13413" id="Stroke-69"></path>
                        <path d="M144,184 C144,184 122.666399,175 104,184" id="Stroke-71"></path>
                        <path d="M128,181.518356 C128,181.518356 114.5,178.278144 101,188" id="Stroke-73"></path>
                        <path d="M109,188 C109,188 100.138761,189.555972 98,195" id="Stroke-75"></path>
                        <path d="M415.922652,611.27852 C415.922652,611.27852 420.38838,637.882599 361.455112,673.013614 C302.521845,708.144628 87.1139813,649.974618 46.7657209,624.984241 C6.4174604,599.991817 4.80324319,578.223728 0.76974867,542.777545 C-3.26579435,507.33034 9.64589482,463.745043 14.4875222,419.403547 C19.3291496,375.063074 27.3992114,320.242238 50.8002396,292.093016 C74.2022922,263.942772 81.4652453,250.104025 91.9556087,216.243916 C102.445972,182.383807 116.971878,142.880347 133.49712,125.950293 C150.023385,109.020238 170.001372,79.1908022 170.001372,79.1908022 C170.001372,79.1908022 193,57.5 207.5,5.68434189e-14" id="Stroke-77"></path>
                    </g>
                </g>
            </g>
        </g>
    </g>
</svg>