<?xml version="1.0" encoding="UTF-8"?>
<svg width="553px" height="565px" viewBox="0 0 553 565" version="1.1" xmlns="http://www.w3.org/2000/svg" xmlns:xlink="http://www.w3.org/1999/xlink">
    <!-- Generator: Sketch 55.2 (78181) - https://sketchapp.com -->
    <title>Group 3</title>
    <desc>Created with Sketch.</desc>
    <g id="Page-1" stroke="none" stroke-width="1" fill="none" fill-rule="evenodd">
        <g id="Tablet" transform="translate(-215.000000, -1122.000000)">
            <g id="cancer" transform="translate(38.000000, 1030.000000)">
                <g id="Group-3" transform="translate(177.000000, 93.000000)">
                    <rect id="Rectangle-Copy-4" fill="#CDE0CE" x="0" y="37" width="553" height="527"></rect>
                    <g id="Group-79-Copy" transform="translate(379.000000, 267.000000) scale(-1, 1) translate(-379.000000, -267.000000) translate(206.000000, 0.000000)" stroke="#3F2811" stroke-width="1.5">
                        <path d="M159.935451,199 C159.935451,199 161.630611,232.976588 147.646869,247.657784 C133.661611,262.338979 130.696029,262.338979 125.610549,266.113822 C120.525828,269.888665 114.169168,271.9863 109.507668,279.536736 C104.846168,287.087173 103.998968,290.862016 98.9134879,295.476213 C93.8287667,300.09041 92.1328484,308.480201 93.4047871,313.513325 C94.6759674,318.547199 99.7614471,321.903115 105.270148,324" id="Stroke-1"></path>
                        <path d="M181.90603,310 C181.90603,310 188.867462,325.762246 181.90603,334.206168 C174.944599,342.649319 172.33446,347.152487 164.502452,345.745295 C156.671239,344.338875 150,340.679713 150,340.679713" id="Stroke-3"></path>
                        <path d="M119,314.577677 C119,314.577677 115.34669,301.777449 111.085654,301.066288 C106.823072,300.355127 98.9087265,305.510708 100.125723,309.599547 C101.343493,313.689064 103.576459,315.46629 105.606075,316" id="Stroke-5"></path>
                        <path d="M149.943499,331.139521 C150.567195,332.192042 153.373447,334.297822 156.647661,331.891532 C159.921875,329.484506 156.647661,323.016176 153.217713,318.804617 C149.787766,314.592322 140.744553,310.982519 137.314606,314.291812 C133.884659,317.600368 138.250532,320.458895 138.250532,320.458895" id="Stroke-7"></path>
                        <path d="M301,296 C276.107331,268.799454 264.937524,266.478079 252.013531,262.685321 C239.088027,258.893349 218,262.685321 218,262.685321 C218,262.685321 222.333695,268.467941 229.354219,271.453127 C236.3755,274.439099 241.800554,277.424286 247.066892,281.404796 C252.331719,285.38452 264.980604,292.131041 279.138801,290.028842 L293.297754,287.926642" id="Stroke-9"></path>
                        <path d="M218,253.055768 C218,253.055768 232.743726,233.395833 254.984791,235.10536 C277.226616,236.814887 294.846388,243.083652 309,273" id="Stroke-11"></path>
                        <path d="M268,247 C268,247 288.285873,253.141793 306,278" id="Stroke-13"></path>
                        <path d="M275,243 C275,243 290.273269,245.092054 303,269" id="Stroke-15"></path>
                        <path d="M254.3366,266 C254.3366,266 249.43255,270.040334 250.05453,275.815725 C250.677201,281.590353 252.197981,286.70938 255,288" id="Stroke-17"></path>
                        <path d="M283,279 C283,279 280.129852,284.620611 277.583627,286.318643 C275.038109,288.016674 273.564573,289.029687 268,291" id="Stroke-19"></path>
                        <path d="M143,207 C143,207 151.456051,220.140019 149.780166,229.064366 C148.103522,237.989487 145.429996,243 145.429996,243" id="Stroke-21"></path>
                        <path d="M143,219 C143,219 120.636419,189.342003 85,202.25769" id="Stroke-23"></path>
                        <path d="M143,235.991035 C143,235.991035 124.730305,217.293111 108.287431,217.040692 C91.8445561,216.787485 83,217.798738 83,217.798738 C83,217.798738 84.4342927,229.522014 93.7571951,233.767383 C103.079351,238.012752 111.685107,240.03368 120.76921,240.286099 C129.852566,240.539307 132.481605,243.677977 136.546429,242.866293 C140.609761,242.055397 142.282854,243.319069 143,235.991035 Z" id="Stroke-25"></path>
                        <path d="M105,217 C105,217 101.63709,221.688632 102.032291,226.340953 C102.428109,230.993999 103.219745,233.79367 105,236" id="Stroke-27"></path>
                        <path d="M132.675818,226 C132.675818,226 133.811678,229.828009 131.831109,233.172317 C129.850541,236.517329 128.03287,238.210284 123,239" id="Stroke-29"></path>
                        <path d="M50,381.496204 C50,381.496204 54.8355714,383.757064 60.6370458,378.911387 C66.4392773,374.06571 74.4965442,376.649768 74.4965442,377.619359 C74.4965442,378.58819 79.0088863,380.84981 85.4560624,381.8194 C91.9017246,382.788232 116.399026,390.864361 121.555556,393.771615 C126.713599,396.679628 135.215212,398.294854 135.215212,398.294854 C135.215212,398.294854 140.251382,400.232518 148.338171,406.047027 C156.425717,411.862294 153.466693,412.185491 165,418 C155.904917,390.864361 135.415811,364.05116 129.291864,357.26706 C123.167917,350.482961 110.275079,348.544538 110.275079,348.544538 C110.275079,348.544538 104.254838,345.522723 92.1159492,346.065178 C79.9770603,346.606874 60.3145735,358.559848 56.7688915,367.928005 C53.2239666,377.296162 50,381.496204 50,381.496204 Z" id="Stroke-31"></path>
                        <path d="M55,381 C55,381 57.8580018,397.358362 69.5609024,402.741189 C81.2645597,408.122473 104.829265,417.950608 118.746985,418.887356 C132.666217,419.82256 149.315572,414.618749 155.61271,414.908878 C161.909849,415.198236 159.577743,413.746046 159.577743,413.746046" id="Stroke-33"></path>
                        <path d="M136,399 C136,399 131.175285,388.392875 127.613973,387.12002 C124.05266,385.847967 115.914227,377.120849 113.370967,376.03006 C110.827707,374.93927 106.757742,373.485152 102.857577,373.485152 C98.9574129,373.485152 92.853588,372.39356 91.8362838,373.485152 C90.8189797,374.575941 85.562659,375.121336 83.6971027,375.121336 C81.8322944,375.121336 76,377.142505 76,377.142505" id="Stroke-35"></path>
                        <path d="M238,213 C238,213 247.156547,193.246616 258,193" id="Stroke-37"></path>
                        <path d="M246,213 C246,213 257.662127,193.029273 279,199.174473" id="Stroke-39"></path>
                        <path d="M233,214 C233,214 237.5,203.636638 233,195" id="Stroke-41"></path>
                        <path d="M255,214 C255,214 266.492766,201.255048 296,207.938199" id="Stroke-43"></path>
                        <path d="M261,214 C261,214 286.384498,202.75 316,214" id="Stroke-45"></path>
                        <path d="M267,216.643365 C267,216.643365 308.983187,206.483662 329,226" id="Stroke-47"></path>
                        <path d="M276,219.504124 C276,219.504124 304.470187,207.515951 333,236" id="Stroke-49"></path>
                        <path d="M298,224.534125 C298,224.534125 318.749643,220.240538 329,236" id="Stroke-51"></path>
                        <path d="M333,236 C333,236 341.589615,241.999583 346,258" id="Stroke-53"></path>
                        <path d="M331,243 C331,243 333.823572,243.756374 339,251" id="Stroke-55"></path>
                        <path d="M153,190 C153,190 155.645069,182.098754 154.851469,173" id="Stroke-57"></path>
                        <path d="M150,183 C150,183 149.984067,170.951563 143,163" id="Stroke-59"></path>
                        <path d="M142.996324,181 C142.996324,181 143.551978,164.943525 131,153" id="Stroke-61"></path>
                        <path d="M134,173 C134,173 132.845887,162.341598 119,153" id="Stroke-63"></path>
                        <path d="M129,170 C129,170 122.95555,154.180842 105,153" id="Stroke-65"></path>
                        <path d="M123,166 C123,166 117.499906,154.196685 95,151" id="Stroke-67"></path>
                        <path d="M113,164 C113,164 99.1676298,151.771259 82,157.552094" id="Stroke-69"></path>
                        <path d="M107,163 C107,163 90.9997994,156.25 77,163" id="Stroke-71"></path>
                        <path d="M95,161.370254 C95,161.370254 85,159.055817 75,166" id="Stroke-73"></path>
                        <path d="M81,166 C81,166 74.5554627,167.111408 73,171" id="Stroke-75"></path>
                        <path d="M307.942733,480.03959 C307.942733,480.03959 311.249089,499.780209 267.615804,525.847939 C223.98252,551.91567 64.4978516,508.752665 34.6246203,490.209437 C4.75138895,471.66469 3.55624736,455.512446 0.569910073,429.210857 C-2.41794389,402.908508 7.14167212,370.567575 10.7263385,337.665531 C14.311005,304.764247 20.2859546,264.086378 37.6117159,243.199241 C54.9382355,222.311344 60.3156143,212.04279 68.082518,186.91809 C75.8494216,161.79339 86.6041792,132.48124 98.8392137,119.91889 C111.075007,107.35654 125.8664,85.2226592 125.8664,85.2226592 C125.8664,85.2226592 147,56.9509665 160,-1.13686838e-13" id="Stroke-77"></path>
                    </g>
                </g>
            </g>
        </g>
    </g>
</svg>