<?xml version="1.0" encoding="UTF-8"?>
<svg width="1047px" height="747px" viewBox="0 0 1047 747" version="1.1" xmlns="http://www.w3.org/2000/svg" xmlns:xlink="http://www.w3.org/1999/xlink">
    <!-- Generator: Sketch 55.2 (78181) - https://sketchapp.com -->
    <title>Group 2</title>
    <desc>Created with Sketch.</desc>
    <g id="Page-1" stroke="none" stroke-width="1" fill="none" fill-rule="evenodd">
        <g id="Desktop-HD" transform="translate(-392.000000, -1720.000000)">
            <g id="cancer" transform="translate(59.000000, 1496.000000)">
                <g id="Group-2" transform="translate(333.000000, 225.000000)">
                    <rect id="Rectangle-Copy-11" fill="#CDE0CE" x="0" y="64" width="1047" height="650"></rect>
                    <g id="Group-79-Copy-3" transform="translate(675.500000, 372.000000) scale(-1, 1) translate(-675.500000, -372.000000) translate(428.000000, 0.000000)" stroke="#3F2811" stroke-width="3.15">
                        <path d="M228.907512,266 C228.907512,266 231.336398,314.382662 211.299992,335.288684 C191.261412,356.194706 187.012221,356.194706 179.725563,361.570082 C172.439993,366.945458 163.331943,369.932491 156.652778,380.684313 C149.973614,391.436134 148.759715,396.81151 141.473057,403.382127 C134.187487,409.952744 131.757514,421.899806 133.579994,429.066974 C135.401386,436.235211 142.688044,441.014036 150.581107,444" id="Stroke-1"></path>
                        <path d="M260.580044,424 C260.580044,424 270.524946,446.767688 260.580044,458.964465 C250.635142,471.160127 246.906371,477.664703 235.717789,475.632093 C224.530342,473.600597 215,468.315141 215,468.315141" id="Stroke-3"></path>
                        <path d="M171,430.008748 C171,430.008748 165.616174,412.088429 159.336754,411.092803 C153.055054,410.097177 141.391807,417.314991 143.185277,423.039366 C144.979885,428.76469 148.27057,431.252806 151.261585,432" id="Stroke-5"></path>
                        <path d="M214.281454,454.302305 C215.188648,455.828461 219.270468,458.881841 224.032961,455.392722 C228.795454,451.902534 224.032961,442.523456 219.043947,436.416695 C214.054933,430.308867 200.901169,425.074653 195.912154,429.873127 C190.92314,434.670533 197.273501,438.815398 197.273501,438.815398" id="Stroke-7"></path>
                        <path d="M430,403 C394.310511,364.142077 378.295969,360.825827 359.766388,355.407601 C341.234641,349.990498 311,355.407601 311,355.407601 C311,355.407601 317.213369,363.668487 327.278941,367.933039 C337.345596,372.198713 345.123685,376.463265 352.674218,382.149708 C360.222584,387.835029 378.357734,397.472916 398.656835,394.469774 L418.95702,391.466632" id="Stroke-9"></path>
                        <path d="M312,342.658197 C312,342.658197 333.062466,314.720394 364.835416,317.149722 C396.609451,319.579049 421.780554,328.487295 442,371" id="Stroke-11"></path>
                        <path d="M384,334 C384,334 412.827293,342.717383 438,378" id="Stroke-13"></path>
                        <path d="M393,329 C393,329 414.818955,331.977153 433,366" id="Stroke-15"></path>
                        <path d="M363.93856,361 C363.93856,361 356.09208,366.87685 357.087248,375.277418 C358.083522,383.676877 360.51677,391.122735 365,393" id="Stroke-17"></path>
                        <path d="M405,379 C405,379 400.981793,386.962532 397.417078,389.368077 C393.853352,391.773622 391.790402,393.208723 384,396" id="Stroke-19"></path>
                        <path d="M204,277 C204,277 216.080073,295.980028 213.685951,308.870751 C211.290746,321.762593 207.471422,329 207.471422,329" id="Stroke-21"></path>
                        <path d="M205,295 C205,295 172.996944,251.995904 122,270.723651" id="Stroke-23"></path>
                        <path d="M205,318.025704 C205,318.025704 178.813437,291.41712 155.245317,291.057908 C131.677197,290.697575 119,292.136665 119,292.136665 C119,292.136665 121.05582,308.819789 134.418646,314.861276 C147.780403,320.902763 160.115321,323.778699 173.135867,324.13791 C186.155344,324.498244 189.923634,328.964814 195.749882,327.809724 C201.573991,326.655758 203.97209,328.45406 205,318.025704 Z" id="Stroke-25"></path>
                        <path d="M151,291 C151,291 145.39515,297.909563 146.053818,304.765614 C146.713514,311.622735 148.032908,315.748567 151,319" id="Stroke-27"></path>
                        <path d="M189.546145,304 C189.546145,304 191.136349,309.594782 188.363553,314.482616 C185.590757,319.371481 183.046018,321.845799 176,323" id="Stroke-29"></path>
                        <path d="M72,525.779291 C72,525.779291 78.8959452,529.013578 87.1693523,522.081568 C95.4438389,515.149558 106.934202,518.846196 106.934202,520.233249 C106.934202,521.619217 113.369194,524.854589 122.563428,526.241642 C131.755503,527.62761 166.690785,539.18096 174.044444,543.339949 C181.400263,547.500024 193.524302,549.810694 193.524302,549.810694 C193.524302,549.810694 200.706319,552.58263 212.238784,560.900608 C223.772328,569.219671 219.552501,569.682022 236,578 C223.029621,539.18096 193.810374,500.823187 185.077093,491.118155 C176.343813,481.413124 157.957504,478.640103 157.957504,478.640103 C157.957504,478.640103 149.372117,474.317229 132.061006,475.093241 C114.749895,475.868167 86.7094787,492.96756 81.6530279,506.369229 C76.5976567,519.770898 72,525.779291 72,525.779291 Z" id="Stroke-31"></path>
                        <path d="M78,526 C78,526 82.1100788,549.246094 98.9399644,556.895374 C115.770938,564.542462 149.659229,578.508758 169.674235,579.839926 C189.691417,581.168901 213.634775,573.774012 222.69066,574.186301 C231.746544,574.597494 228.392755,572.533855 228.392755,572.533855" id="Stroke-33"></path>
                        <path d="M195,551 C195,551 188.084576,535.905245 182.980028,534.093874 C177.87548,532.283645 166.210392,519.864285 162.565053,518.312008 C158.919713,516.759731 153.086097,514.690408 147.495861,514.690408 C141.905625,514.690408 133.156809,513.13699 131.698674,514.690408 C130.240538,516.242686 122.706478,517.018824 120.032514,517.018824 C117.359622,517.018824 109,519.895103 109,519.895103" id="Stroke-35"></path>
                        <path d="M340,285 C340,285 353.276993,256.357593 369,256" id="Stroke-37"></path>
                        <path d="M352,285 C352,285 368.609696,257.040982 399,265.644262" id="Stroke-39"></path>
                        <path d="M333,287 C333,287 339.75,271.727677 333,259" id="Stroke-41"></path>
                        <path d="M365,287 C365,287 381.258059,269.475691 423,278.665024" id="Stroke-43"></path>
                        <path d="M373,287 C373,287 408.999834,269 451,287" id="Stroke-45"></path>
                        <path d="M382,290.744767 C382,290.744767 442.266188,276.351855 471,304" id="Stroke-47"></path>
                        <path d="M395,294.690289 C395,294.690289 435.457635,277.023507 476,319" id="Stroke-49"></path>
                        <path d="M427,301.756677 C427,301.756677 456.451106,295.674095 471,318" id="Stroke-51"></path>
                        <path d="M476,318 C476,318 488.554053,326.726667 495,350" id="Stroke-53"></path>
                        <path d="M474,329 C474,329 477.882411,330.040014 485,340" id="Stroke-55"></path>
                        <path d="M218,252 C218,252 221.967604,240.8453 220.777203,228" id="Stroke-57"></path>
                        <path d="M214,243 C214,243 213.977238,225.529766 204,214" id="Stroke-59"></path>
                        <path d="M204.994792,239 C204.994792,239 205.78197,216.062179 188,199" id="Stroke-61"></path>
                        <path d="M192,229 C192,229 190.384241,213.545317 171,200" id="Stroke-63"></path>
                        <path d="M185,223 C185,223 176.437029,200.667071 151,199" id="Stroke-65"></path>
                        <path d="M176,218 C176,218 168.142723,201.475359 136,197" id="Stroke-67"></path>
                        <path d="M162,215 C162,215 142.366958,198.185482 118,206.13413" id="Stroke-69"></path>
                        <path d="M152,214 C152,214 129.599719,202.75 110,214" id="Stroke-71"></path>
                        <path d="M136,210.592407 C136,210.592407 121.5,206.889307 107,218" id="Stroke-73"></path>
                        <path d="M115,218 C115,218 106.138761,219.778253 104,226" id="Stroke-75"></path>
                        <path d="M440.918004,666.891977 C440.918004,666.891977 445.652105,695.100808 383.177174,732.350917 C320.702244,769.601026 92.3491966,707.922215 49.5761608,681.424423 C6.80312509,654.924462 5.09189963,631.843326 0.816007604,594.259037 C-3.46205603,556.673664 10.225576,510.459311 15.3581666,463.443146 C20.4907571,416.428065 29.0457986,358.300448 53.8531387,328.453272 C78.6615645,298.60501 86.3609933,283.931514 97.4817871,248.028971 C108.602581,212.126427 124.001438,170.240127 141.519783,152.288855 C159.039214,134.337583 180.217801,102.708842 180.217801,102.708842 C180.217801,102.708842 209.192308,68.5957447 226.153846,0" id="Stroke-77"></path>
                    </g>
                </g>
            </g>
        </g>
    </g>
</svg>